SplineFontDB: 2.0
FontName: Acknowledgement
FullName: Acknowledgement
FamilyName: Acknowledgement
Weight: Medium
Copyright: Copyright 1999-2008 Ben Weiner. Licensed under the Open Font License (http://scripts.sil.org/OFL). See accompanying license and FONTLOG.
Version: 001.000
ItalicAngle: 0
UnderlinePosition: -133
UnderlineWidth: 20
Ascent: 800
Descent: 200
NeedsXUIDChange: 1
UniqueID: 4065673
FSType: 0
OS2Version: 0
OS2_WeightWidthSlopeOnly: 0
OS2_UseTypoMetrics: 0
CreationTime: 1194774277
ModificationTime: 1207957447
OS2TypoAscent: 0
OS2TypoAOffset: 1
OS2TypoDescent: 0
OS2TypoDOffset: 1
OS2TypoLinegap: 90
OS2WinAscent: 0
OS2WinAOffset: 1
OS2WinDescent: 0
OS2WinDOffset: 1
HheadAscent: 0
HheadAOffset: 1
HheadDescent: 0
HheadDOffset: 1
DEI: 0
Encoding: UnicodeFull
UnicodeInterp: none
NameList: Adobe Glyph List
DisplaySize: -96
AntiAlias: 1
FitToEm: 1
WinInfo: 64 8 2
BeginPrivate: 8
BlueValues 31 [-22.000 1.000 617.999 619.729]
BlueScale 11 0.347826087
StdHW 9 [114.100]
StdVW 9 [206.397]
StemSnapH 17 [114.100 124.973]
StemSnapV 17 [206.397 218.641]
ForceBoldThreshold 2 .5
ForceBold 5 false
EndPrivate
BeginChars: 1114113 209
StartChar: Eth
Encoding: 208 208 1
Width: 956
Flags: W
Validated: 5
HStem: 1 124<40 144 351 621.399> 277 81<34 458> 504 115<40 144 351 609.634>
VStem: 144 207<125 504> 692 224<197.977 425.106>
Fore
351 125 m 1
 504 125 l 2
 653 125 692 185 692 315 c 0
 692 443 642 504 492 504 c 2
 351 504 l 1
 351 125 l 1
40 1 m 1
 40 125 l 1
 144 125 l 1
 144 504 l 1
 40 504 l 1
 40 619 l 1
 488 619 l 2
 737 619 916 530 916 315 c 0
 916 100 751 1 500 1 c 2
 40 1 l 1
34 277 m 1
 34 358 l 1
 458 358 l 1
 458 277 l 1
 34 277 l 1
EndSplineSet
EndChar
StartChar: eth
Encoding: 240 240 2
Width: 956
Flags: W
Validated: 5
HStem: 1 124<40 144 351 621.399> 277 81<44 468> 504 115<40 144 351 609.634>
VStem: 144 207<125 504> 692 224<197.977 425.106>
Fore
351 125 m 1
 504 125 l 2
 653 125 692 185 692 315 c 0
 692 443 642 504 492 504 c 2
 351 504 l 1
 351 125 l 1
40 1 m 1
 40 125 l 1
 144 125 l 1
 144 504 l 1
 40 504 l 1
 40 619 l 1
 488 619 l 2
 737 619 916 530 916 315 c 0
 916 100 751 1 500 1 c 2
 40 1 l 1
44 277 m 1
 44 358 l 1
 468 358 l 1
 468 277 l 1
 44 277 l 1
EndSplineSet
EndChar
StartChar: Lslash
Encoding: 321 321 3
Width: 861
Flags: W
Validated: 5
HStem: 0 124<40 144 351 683> 504 115<40 144 351 459>
VStem: 144 207<124 504> 683 138<124 241>
Fore
42.5 300 m 25
 457.5 442 l 25
 457.5 324.5 l 25
 42 180 l 25
 42.5 300 l 25
40 0 m 1
 40 124 l 1
 144 124 l 1
 144 504 l 1
 40 504 l 1
 40 619 l 1
 459 619 l 1
 459 504 l 1
 351 504 l 1
 351 124 l 1
 683 124 l 1
 683 241 l 1
 821 241 l 1
 821 0 l 1
 40 0 l 1
EndSplineSet
EndChar
StartChar: onehalf
Encoding: 189 189 10
Width: 750
Flags: HMW
Validated: 1
HStem: 0 96<665 720 665 720> 204 51<546 586> 384 248G<165 247 165 289 121 247>
VStem: 119 127<434 591> 613 94G
Fore
119 546 m 1
 119 591 l 1
 151 594 162 604 165 632 c 1
 247 632 l 1
 247 434 l 1
 289 434 l 1
 289 384 l 1
 121 384 l 1
 121 434 l 1
 164 434 l 1
 164 546 l 1
 119 546 l 1
416 0 m 1
 416 42 l 2
 416 97 506 124 554 136 c 0
 601 147 612 151 612 173 c 0
 612 186 612 204 560 204 c 0
 532 204 512 194 512 163 c 1
 423 163 l 1
 423 232 509 255 563 255 c 0
 647 255 707 235 707 170 c 0
 707 119 673 104 614 84 c 0
 572.053 71.5713 521.434 64.2927 510 50 c 1
 665 50 l 1
 665 96 l 1
 720 96 l 1
 720 0 l 1
 416 0 l 1
30 60 m 1
 588 618 l 1
 678 529 l 1
 120 -29 l 1
 30 60 l 1
EndSplineSet
EndChar
StartChar: onequarter
Encoding: 188 188 11
Width: 750
Flags: HMW
Validated: 1
HStem: 0 248<576 653 576 696 528 653> 384 248G<165 247 165 289 121 247>
VStem: 119 127<434 591> 571 82G<50 64 50 64 114 157 157 157>
Fore
119 546 m 1
 119 591 l 1
 151 594 162 604 165 632 c 1
 247 632 l 1
 247 434 l 1
 289 434 l 1
 289 384 l 1
 121 384 l 1
 121 434 l 1
 164 434 l 1
 164 546 l 1
 119 546 l 1
30 60 m 1
 588 618 l 1
 678 529 l 1
 120 -29 l 1
 30 60 l 1
653 248 m 1
 653 114 l 1
 720 114 l 1
 720 64 l 1
 653 64 l 1
 653 50 l 1
 696 50 l 1
 696 0 l 1
 528 0 l 1
 528 50 l 1
 571 50 l 1
 571 64 l 1
 433 64 l 1
 404 106 l 1
 576 248 l 1
 653 248 l 1
571 114 m 1
 571 157 l 1
 519 114 l 1
 571 114 l 1
EndSplineSet
EndChar
StartChar: uni00B9
Encoding: 185 185 12
Width: 410
Flags: HMW
Validated: 1
HStem: 384 248<166 248 166 290 122 248>
VStem: 120 127<434 591>
Fore
120 546 m 1
 120 591 l 1
 152 594 163 604 166 632 c 1
 248 632 l 1
 248 434 l 1
 290 434 l 1
 290 384 l 1
 122 384 l 1
 122 434 l 1
 165 434 l 1
 165 546 l 1
 120 546 l 1
EndSplineSet
EndChar
StartChar: threequarters
Encoding: 190 190 13
Width: 750
Flags: HMW
Validated: 1
HStem: 0 50<528 571 653 696 528 571> 64 50<519 571 519 571 653 720> 381 51G<196.5 214 196.5 251> 559 86G<77 245.5>
VStem: 272 94<460.5 480> 571 82G<50 64 50 64 114 157 157 157>
Fore
30 60 m 1
 588 618 l 1
 678 529 l 1
 120 -29 l 1
 30 60 l 1
653 248 m 1
 653 114 l 1
 720 114 l 1
 720 64 l 1
 653 64 l 1
 653 50 l 1
 696 50 l 1
 696 0 l 1
 528 0 l 1
 528 50 l 1
 571 50 l 1
 571 64 l 1
 433 64 l 1
 404 106 l 1
 576 248 l 1
 653 248 l 1
571 114 m 1
 571 157 l 1
 519 114 l 1
 571 114 l 1
272 467 m 0
 272 489.533 244.96 491.036 207.154 491.036 c 0
 201.338 491.036 195.267 491 189 491 c 1
 189 548 l 1
 232 548 264 548 264 570 c 0
 264 581 262 598 214 598 c 0
 182 598 165 585 165 559 c 1
 77 559 l 1
 77 626 154 645 208 645 c 0
 283 645 350 628 350 568 c 0
 350 547 339 535 322 528 c 1
 349 515 366 497 366 466 c 0
 366 400 293 381 209 381 c 0
 151 381 64 402 64 474 c 1
 154 474 l 1
 154 449 179 432 214 432 c 0
 215.142 431.979 216.262 431.968 217.36 431.968 c 0
 268.167 431.968 272 454.275 272 467 c 0
EndSplineSet
EndChar
StartChar: brokenbar
Encoding: 166 166 14
Width: 527
Flags: HMW
Validated: 1
HStem: 398 291G<200 327 200 327>
VStem: 200 127<-100 269 398 689>
Fore
200 -100 m 1
 200 269 l 1
 326 269 l 1
 326 -100 l 1
 200 -100 l 1
200 398 m 1
 200 689 l 1
 327 689 l 1
 327 398 l 1
 200 398 l 1
EndSplineSet
EndChar
StartChar: minus
Encoding: 8722 8722 15
Width: 606
Flags: HMW
Validated: 1
HStem: 277 81G<94 518 94 518>
Fore
94 277 m 1
 94 358 l 1
 518 358 l 1
 518 277 l 1
 94 277 l 1
EndSplineSet
EndChar
StartChar: multiply
Encoding: 215 215 16
Width: 603
Flags: W
Validated: 1
HStem: 108.925 417.15<141 360 141 141>
VStem: 40 421<208.825 208.825 208.825 208.825>
Fore
40 208.825 m 1
 150 318.175 l 1
 40 426.175 l 1
 141 526.075 l 1
 251 418.075 l 1
 359 526.075 l 1
 459 426.175 l 1
 351 318.175 l 1
 461 208.825 l 1
 360 108.925 l 1
 250 218.275 l 1
 140 108.925 l 1
 40 208.825 l 1
EndSplineSet
EndChar
StartChar: exclam
Encoding: 33 33 18
Width: 364
Flags: HMW
Validated: 1
HStem: -16 211<160.5 227.5>
VStem: 86 206
Fore
60 636 m 1
 319 636 l 1
 292 223 l 1
 87 223 l 1
 60 636 l 1
65 87 m 0
 65 147 125 195 194 195 c 0
 262 195 324 147 324 87 c 0
 324 25 261 -16 194 -16 c 0
 127 -16 65 25 65 87 c 0
EndSplineSet
EndChar
StartChar: quotedbl
Encoding: 34 34 19
Width: 414
Flags: HMW
Validated: 1
HStem: 493 214G<69 69 69 181 249 361 249 249>
VStem: 69 112<493 493> 249 112G<493 493>
Fore
55 707 m 1
 196 707 l 1
 181 493 l 1
 69 493 l 1
 55 707 l 1
235 707 m 1
 376 707 l 1
 361 493 l 1
 249 493 l 1
 235 707 l 1
EndSplineSet
EndChar
StartChar: numbersign
Encoding: 35 35 20
Width: 574
Flags: HMW
Validated: 1
VStem: 75 177<367 405 333 443 333 443 542 580 333 618> 322 177G<348 533 419 533 495 533 457 594 457 594 670 708 457 742>
Fore
252 481 m 1
 322 495 l 1
 322 594 l 1
 252 580 l 1
 252 481 l 1
75 367 m 1
 75 443 l 1
 146 458 l 1
 146 557 l 1
 75 542 l 1
 75 618 l 1
 146 633 l 1
 146 705 l 1
 252 727 l 1
 252 656 l 1
 322 670 l 1
 322 742 l 1
 428 764 l 1
 428 693 l 1
 499 708 l 1
 499 632 l 1
 428 617 l 1
 428 518 l 1
 499 533 l 1
 499 457 l 1
 428 442 l 1
 428 370 l 1
 322 348 l 1
 322 419 l 1
 252 405 l 1
 252 333 l 1
 146 311 l 1
 146 382 l 1
 75 367 l 1
EndSplineSet
EndChar
StartChar: dollar
Encoding: 36 36 21
Width: 782
Flags: HMW
Validated: 1
HStem: -8 254<20 158 20 158> 390 245G<617 755 617 755>
VStem: 38 206 311 161G 555 207G<149.5 184>
Fore
20 -8 m 1
 20 246 l 1
 158 246 l 1
 158 210 l 2
 158 161 221 128 310 113 c 1
 310 233 l 1
 186 252 38 300 38 438 c 0
 38 578 186 633 310 648 c 1
 310 754 l 1
 472 754 l 1
 472 645 l 1
 531 633 582 609 617 585 c 1
 617 635 l 1
 755 635 l 1
 755 390 l 1
 617 390 l 1
 617 427 l 2
 617 474 545 501 472 514 c 1
 472 404 l 1
 626 385 762 349 762 179 c 0
 762 68 669 -8 472 -23 c 1
 472 -112 l 1
 310 -112 l 1
 310 -21 l 1
 249 -15 195 0 158 20 c 1
 158 -8 l 1
 20 -8 l 1
243 460 m 0
 243 437 272 430 310 424 c 1
 310 518 l 1
 266 512 243 497 243 460 c 0
555 164 m 0
 555 204 521 212 472 218 c 1
 472 112 l 1
 514 120 555 135 555 164 c 0
EndSplineSet
EndChar
StartChar: percent
Encoding: 37 37 22
Width: 1200
Flags: HMW
Validated: 1
HStem: -37 91<888.5 947 888.5 979.5> 286 86G 529 81G<235 296>
VStem: 40 145<395.5 444.5 395.5 479> 339 145<394 441> 671 156G<134.5 190.5 134.5 228.5> 1003 157G<158 187>
Fore
942 255 m 0
 888.902 255 861.485 202.674 861.485 150.894 c 0
 861.485 100.185 887.78 50 942 50 c 0
 1005 50 1030 102 1030 146 c 0
 1030 196 1019 255 942 255 c 0
717 148 m 0
 717 262 829 336 941 336 c 0
 1054 336 1161 260 1161 148 c 0
 1161 28 1053 -37 941 -37 c 0
 826 -37 717 34 717 148 c 0
265 529 m 0
 211.902 529 184.485 476.674 184.485 424.894 c 0
 184.485 374.185 210.78 324 265 324 c 0
 328 324 353 376 353 420 c 0
 353 470 342 529 265 529 c 0
40 422 m 0
 40 536 152 610 264 610 c 0
 377 610 484 534 484 422 c 0
 484 302 376 237 264 237 c 0
 149 237 40 308 40 422 c 0
240 -76 m 1
 746 639 l 1
 956 639 l 1
 450 -76 l 1
 240 -76 l 1
EndSplineSet
EndChar
StartChar: ampersand
Encoding: 38 38 23
Width: 901
Flags: HMW
Validated: 1
HStem: -23 94 279 90G 555 85G
VStem: 89 146 480 146G
Fore
368 642 m 0
 545.799 642 584 513.408 584 464 c 0
 584 402 536 355 463 323 c 1
 611 204 l 1
 627 219 632 229 638 251 c 1
 574 251 l 1
 574 366 l 1
 837 366 l 1
 837 251 l 1
 765 251 l 1
 760 193 727 141 699 114 c 1
 857 114 l 1
 857 -1 l 1
 628 -1 l 1
 570 40 l 1
 513 5 460 -23 364 -23 c 0
 153 -23 43 38 43 167 c 0
 43 255 107 319 176 352 c 1
 146 385 132 429 132 467 c 0
 132 579 217 642 368 642 c 0
301 476 m 0
 301 436 329 424 358 403 c 1
 405 417 432 453 432 460 c 0
 430 495 417 524 356 524 c 0
 320 524 301 509 301 476 c 0
234 167 m 0
 234 142 261 97 368 97 c 0
 403 97 425.985 103.175 455.985 120.175 c 1
 288 261 l 1
 249 241 234 216 234 167 c 0
EndSplineSet
EndChar
StartChar: quotesingle
Encoding: 39 39 24
Width: 286
Flags: HMW
Validated: 1
HStem: 493 214G<87 87 87 199>
VStem: 87 112<493 493>
Fore
73 707 m 1
 214 707 l 1
 199 493 l 1
 87 493 l 1
 73 707 l 1
EndSplineSet
EndChar
StartChar: parenleft
Encoding: 40 40 25
Width: 514
Flags: W
Validated: 1
HStem: -100.009 142.996<342.305 483.804 482.986 484.622 484.622 487> 546 143.007<357.583 483>
VStem: 26.9959 201.994<155.256 418.258> 26.9959 456.004<-18.5054 43 546 577.113>
Fore
483 546 m 1xd0
 279.792 546 228.99 433.281 228.99 295.953 c 0
 228.99 99.9389 300.996 42.9871 482.245 42.9871 c 0
 483.822 42.9871 485.407 42.9914 487 43 c 1
 487 -100 l 1
 485.321 -100.006 480.645 -100.009 478.973 -100.009 c 2
 205.521 -100.009 26.9959 -18.5054 26.9959 297.409 c 0xe0
 26.9959 577.113 262.551 689.007 471.197 689.007 c 2
 483 689 l 1
 483 546 l 1xd0
EndSplineSet
EndChar
StartChar: parenright
Encoding: 41 41 26
Width: 514
Flags: HMW
Validated: 1
VStem: 285 202G<300 300>
Fore
31 546 m 1
 31 689 l 1
 42.7852 689.007 l 2
 250.198 689.007 486 577.5 486 300 c 0
 486 -18.0615 306.2 -100.009 32.0274 -100.009 c 0
 30.3551 -100.009 28.6793 -100.006 27 -100 c 1
 27 43 l 1
 28.5933 42.9914 34.1787 42.9873 35.7549 42.9873 c 2
 217.004 42.9873 285.01 99.9389 285.01 295.953 c 0
 285.01 433.281 234.208 546 31 546 c 1
EndSplineSet
EndChar
StartChar: asterisk
Encoding: 42 42 27
Width: 468
Flags: HMW
Validated: 1
HStem: 452 281<171 296 166 301>
Fore
38 559 m 1
 138 593 l 1
 38 626 l 1
 104 710 l 1
 187 658 l 1
 171 733 l 1
 301 733 l 1
 282 659 l 1
 363 710 l 1
 430 626 l 1
 330 593 l 1
 430 559 l 1
 363 475 l 1
 280 527 l 1
 296 452 l 1
 166 452 l 1
 185 526 l 1
 104 475 l 1
 38 559 l 1
EndSplineSet
EndChar
StartChar: plus
Encoding: 43 43 28
Width: 608
Flags: HMW
Validated: 1
HStem: 234 108G
VStem: 236 138G<117 233 117 233 342 457>
Fore
50 263 m 5
 50 372 l 5
 236 372 l 1
 236 517 l 1
 374 517 l 1
 374 372 l 1
 558 372 l 1
 558 263 l 1
 374 263 l 1
 374 117 l 1
 236 117 l 1
 236 263 l 1
 50 263 l 5
EndSplineSet
EndChar
StartChar: comma
Encoding: 44 44 29
Width: 411
Flags: HMW
Validated: 1
VStem: 59 293<78 78>
Fore
59 78 m 0
 59 140 124 189 199 189 c 0
 271.553 189 352.009 142.573 352.009 79.1728 c 0
 352.009 42.2269 347.243 14.3307 322 -20 c 4
 292 -64 252 -86 182 -122 c 1
 109 -55 l 1
 141 -40 159 -32 173 -25 c 1
 110 -16 59 23 59 78 c 0
EndSplineSet
EndChar
StartChar: hyphen
Encoding: 45 45 30
Width: 599
Flags: HMW
Validated: 1
HStem: 277 82G<166 434>
VStem: 166 268G<277 358 358 358>
Fore
166 277 m 1
 166 358 l 1
 434 358 l 1
 434 277 l 1
 166 277 l 1
EndSplineSet
EndChar
StartChar: period
Encoding: 46 46 31
Width: 401
Flags: HMW
Validated: 1
HStem: -15 204<163.5 237>
VStem: 60 281<54.5 113.5>
Fore
60 84 m 0
 60 143 125 189 200 189 c 0
 276 189 341 143 341 84 c 0
 341 25 274 -15 200 -15 c 0
 127 -15 60 25 60 84 c 0
EndSplineSet
EndChar
StartChar: slash
Encoding: 47 47 32
Width: 512
Flags: W
Validated: 1
VStem: 18 476<-100 689 -100 -100>
Fore
18 -100 m 1
 285 689 l 1
 494 689 l 1
 227 -100 l 1
 18 -100 l 1
EndSplineSet
EndChar
StartChar: zero
Encoding: 48 48 33
Width: 820
Flags: HMW
Validated: 1
HStem: -17 127 520 117G<353.5 478>
VStem: 16 234<249 348.5 249 407> 571 234G
Fore
250 296 m 0
 250 202 313 109 415 109 c 0
 519 109 570 204 570 295 c 0
 570 399 541 520 415 520 c 0
 292 520 250 401 250 296 c 0
16 307 m 0
 16 507 216 637 415 637 c 0
 613 637 805 504 805 307 c 0
 805 94 612 -17 415 -17 c 0
 223 -17 16 97 16 307 c 0
EndSplineSet
EndChar
StartChar: one
Encoding: 49 49 34
Width: 720
Flags: HMW
Validated: 1
HStem: 0 125<154 261 466 573 154 261> 406 112G<148 261 148 148> 599 20G<263 467 467 467>
VStem: 263 203G
Fore
148 406 m 1
 148 518 l 1
 229 525 256 551 263 619 c 1
 467 619 l 1
 467 125 l 1
 573 125 l 1
 573 0 l 1
 154 0 l 1
 154 125 l 1
 261 125 l 1
 261 406 l 1
 148 406 l 1
EndSplineSet
EndChar
StartChar: two
Encoding: 50 50 35
Width: 820
Flags: HMW
Validated: 1
HStem: 0 124<265 378 265 652 265 790> 511 126G<354.5 455>
VStem: 652 138G<124 241 0 241>
Fore
30 0 m 1
 30 105 l 2
 30 243 256 311 375 339 c 0
 493 367 521 377 521 432 c 0
 521 466 520 511 390 511 c 0
 319 511 271 487.5 271 407 c 1
 47 407 l 1
 47 581 261 637 396 637 c 0
 607 637 757 589 757 426 c 0
 757 298 673 260 525 211 c 0
 428.314 179.252 295.307 163.4 265 124 c 1
 652 124 l 1
 652 241 l 1
 790 241 l 1
 790 0 l 1
 30 0 l 1
EndSplineSet
EndChar
StartChar: three
Encoding: 51 51 36
Width: 819
Flags: HMW
Validated: 1
HStem: -23 127 519 118G<367 406>
VStem: 532 215G<422.5 463>
Fore
553 192 m 0
 553 256 462 251 344 252 c 1
 344 394 l 1
 452 394 532 395 532 450 c 0
 532 476.296 529.5 519 406 519 c 0
 328 519 283 486 283 422 c 1
 64 422 l 1
 64 590 257 637 391 637 c 0
 579 637 747 594 747 445 c 0
 747 391 719 362 678 343 c 1
 744 312 787 266 787 188 c 0
 787 25 604 -23 394 -23 c 0
 248 -23 32 28 32 210 c 1
 258 210 l 1
 258 148 318.994 103 408 103 c 0
 516 103 553 138.6 553 192 c 0
EndSplineSet
EndChar
StartChar: four
Encoding: 52 52 37
Width: 820
Flags: HMW
Validated: 1
HStem: 0 125<326 432 638 745 326 432> 160 124<303 432 303 432 638 805> 599 20G<446 638 638 638>
VStem: 432 206G<125 160 125 160 284 392 392 392>
Fore
638 619 m 1
 638 284 l 1
 805 284 l 1
 805 160 l 1
 638 160 l 1
 638 125 l 1
 745 125 l 1
 745 0 l 1
 326 0 l 1
 326 125 l 1
 432 125 l 1
 432 160 l 1
 88 160 l 1
 15 264 l 1
 446 619 l 1
 638 619 l 1
432 284 m 1
 432 392 l 1
 303 284 l 1
 432 284 l 1
EndSplineSet
EndChar
StartChar: five
Encoding: 53 53 38
Width: 820
Flags: HMW
Validated: 1
HStem: -23 126<375 462.5 375 495.5> 315 128G<372 470.5> 473 146G<228 641 228 228>
VStem: 70 159 641 139G<424 473 473 473>
Fore
30 200 m 1
 255 200 l 1
 255 119 354 103 396 103 c 0
 529 103 553 160 553 192 c 0
 553 255 548 315 393 315 c 0
 308 315 264 274 235 242 c 1
 70 242 l 1
 70 619 l 1
 780 619 l 1
 780 424 l 1
 641 424 l 1
 641 473 l 1
 228 473 l 1
 228 393 l 1
 274 422 330 443 414 443 c 0
 561 443 790 392 790 202 c 0
 790 39 601 -23 390 -23 c 0
 254 -23 30 16 30 200 c 1
EndSplineSet
EndChar
StartChar: six
Encoding: 54 54 39
Width: 820
Flags: HMW
Validated: 1
HStem: -23 118<371 415> 305 121G<425.5 472> 525 113G<363 445.5>
VStem: 54 238<201.5 229 185 424.5> 547 219G<183.5 227>
Fore
292 202 m 0
 292 168 315 95 427 95 c 0
 527 95 547 166 547 201 c 0
 547 253 521 305 423 305 c 0
 328 305 292 256 292 202 c 0
54 292 m 0
 54 557 274 638 447 638 c 0
 552 638 752 587 752 454 c 1
 533 454 l 1
 533 502 474 525 417 525 c 0
 345.047 525 306.827 496.148 288.739 448.5 c 0
 279.677 424.629 275 397 275 364 c 1
 336.274 407.17 406.786 426.205 474.908 426.205 c 0
 627.177 426.205 766 334 766 200 c 0
 766 54 654.002 -23 415 -23 c 0
 212 -23 54 111 54 292 c 0
EndSplineSet
EndChar
StartChar: seven
Encoding: 55 55 40
Width: 820
Flags: HMW
Validated: 1
HStem: 0 20 379 240G<18 156 18 802>
VStem: 18 138<379 476 379 619>
Fore
18 379 m 1
 18 619 l 1
 802 619 l 1
 802 486 l 1
 722 423 618 354 553 276 c 0
 500 213 471 139 471 0 c 1
 198 0 l 1
 198 201 260 277 409 394 c 2
 514 476 l 1
 156 476 l 1
 156 379 l 1
 18 379 l 1
EndSplineSet
EndChar
StartChar: eight
Encoding: 56 56 41
Width: 821
Flags: HMW
Validated: 1
HStem: -23 127 262 123G<365.5 465.5> 524 118G<345 462.5>
VStem: 80 203<428 465 427.5 529.5> 538 203G<428 463.5>
Fore
262 183 m 0
 262 151 271 83 403 83 c 0
 539 83 558 153 558 183 c 0
 558 237 521 285 410 285 c 0
 300 285 262 237 262 183 c 0
283 454 m 0
 283 409 309 369 416 369 c 0
 519 369 538 406 538 454 c 0
 538 481 522 550 403 550 c 0
 287 550 283 484 283 454 c 0
40 188 m 0
 40 267 84 313 151 344 c 1
 108 366 80 401 80 455 c 0
 80 604 226 642 415 642 c 0
 604 642 741 603 741 455 c 0
 741 401 713 366 670 344 c 1
 737 313 781 267 781 188 c 0
 781 25 620 -23 410 -23 c 0
 199 -23 40 25 40 188 c 0
EndSplineSet
EndChar
StartChar: nine
Encoding: 57 57 42
Width: 820
Flags: HMW
Validated: 1
HStem: -24 124 207 121<351 394.5> 519 118G<342 451>
VStem: 55 219<395 439 395 496.5> 529 238G<396 418.5 200 437.5>
Fore
274 422 m 0
 274 368 303 328 399 328 c 0
 495 328 529 370 529 422 c 0
 529 453 508 519 394 519 c 0
 290 519 274 456 274 422 c 0
53 163 m 1
 279 163 l 1
 283 128 298 100 377 100 c 0
 499.554 100 538.071 186.247 545 259 c 1
 487.48 223.21 418 206.716 350 206.716 c 0
 199.678 206.716 55 288.121 55 423 c 0
 55 570 214 637 406 637 c 0
 598 637 767 505 767 332 c 0
 767 68 582 -24 387 -24 c 0
 304.994 -24 53 -3 53 163 c 1
EndSplineSet
EndChar
StartChar: colon
Encoding: 58 58 43
Width: 401
Flags: HMW
Validated: 1
HStem: -15 226<164 237.5> 273 226G<164 237.5>
VStem: 60 281<62 127.5 350 415.5>
Fore
60 383 m 0
 60 448 125 499 201 499 c 0
 276 499 341 448 341 383 c 0
 341 317 274 273 201 273 c 0
 127 273 60 317 60 383 c 0
60 95 m 0
 60 160 125 211 201 211 c 0
 276 211 341 160 341 95 c 0
 341 29 274 -15 201 -15 c 0
 127 -15 60 29 60 95 c 0
EndSplineSet
EndChar
StartChar: semicolon
Encoding: 59 59 44
Width: 413
Flags: HMW
Validated: 1
HStem: 270 229G<164 237.5>
VStem: 60 281<61.5 414.5 348.5 414.5>
Fore
60 382 m 0
 60 447 125 499 201 499 c 0
 276 499 341 447 341 382 c 0
 341 315 274 270 201 270 c 0
 127 270 60 315 60 382 c 0
60 91 m 0
 60 156 125 208 201 208 c 0
 272.559 208 353.009 158.61 353.009 91.2461 c 0
 353.009 5.94767 328.905 -42.7943 183 -122 c 5
 111 -51 l 1
 142 -36 161 -26 174 -19 c 1
 112 -10 60 32 60 91 c 0
EndSplineSet
EndChar
StartChar: less
Encoding: 60 60 45
Width: 552
Flags: W
Validated: 1
HStem: -22 21G<377.452 429.154>
VStem: 30 492<270 469 270 270>
Fore
30 270 m 1
 403 561 l 1
 522 469 l 1
 265 269 l 1
 522 69 l 1
 403 -22 l 1
 30 270 l 1
EndSplineSet
EndChar
StartChar: equal
Encoding: 61 61 46
Width: 604
Flags: HMW
Validated: 1
HStem: 77 106<90 514 90 514> 252 106G<90 514 90 514>
Fore
90 77 m 1
 90 183 l 1
 514 183 l 1
 514 77 l 1
 90 77 l 1
90 252 m 1
 90 358 l 1
 514 358 l 1
 514 252 l 1
 90 252 l 1
EndSplineSet
EndChar
StartChar: greater
Encoding: 62 62 47
Width: 552
Flags: W
Validated: 1
HStem: -22 21G<122.846 174.724>
VStem: 30 492<69 268 69 69>
Fore
30 69 m 1
 287 269 l 1
 30 469 l 1
 149 561 l 1
 522 268 l 1
 149 -22 l 1
 30 69 l 1
EndSplineSet
EndChar
StartChar: question
Encoding: 63 63 48
Width: 760
Flags: HMW
Validated: 1
HStem: -16 211<332.5 399.5> 510 127G
VStem: 494 221G<443.5 447 424.5 459.5>
Fore
237 87 m 0
 237 147 297 195 366 195 c 0
 434 195 494 147 494 87 c 0
 494 25 433 -16 366 -16 c 0
 299 -16 237 25 237 87 c 0
494.006 456.007 m 0
 494.006 478.04 491.434 511 376 511 c 0
 310 511 269 484 269 407 c 1
 45 407 l 1
 45 580 247 637 382 637 c 0
 599.068 637 716.007 592.375 716.007 447.867 c 0
 716.007 322.27 575.35 304.402 513 279 c 0
 484 266 468 252 468 207 c 1
 237 207 l 1
 237 263 246 310 277 337 c 0
 318 373 390 399 422 404 c 0
 491.924 415.278 494.006 438.676 494.006 456.007 c 0
EndSplineSet
EndChar
StartChar: at
Encoding: 64 64 49
Width: 900
Flags: HMW
Validated: 1
HStem: -41 108<392.5 480> 140 87<397 402.5> 387 77G 529 109G<396.5 539>
VStem: 20 163<194.5 386.5> 251 118 733 147G
Fore
370 269 m 0
 370 235.559 390.826 226.569 411.462 226.569 c 0
 428.104 226.569 444.623 232.415 450 236 c 0
 462 244 473 260 486 269 c 1
 511 373 l 1
 488.387 384.972 485.376 386.052 470.718 386.052 c 0
 467.489 386.052 463.694 386 459 386 c 0
 400 386 370 316 370 269 c 0
449 -43 m 0
 187 -43 20 87 20 300 c 0
 20 473 216 638 472 638 c 0
 733 638 880 514 880 327 c 0
 880 203 692 109 570 109 c 0
 538 109 508 124 480 165 c 1
 448.751 147.863 417.025 140.049 387.545 140.049 c 0
 311.871 140.049 251 191.54 251 269 c 0
 251 388 350 463 463 463 c 0
 487 463 502 461 529 442 c 1
 529 461 l 1
 618 449 l 1
 565 241 l 1
 565 203.25 587.262 186.151 615.625 186.151 c 0
 665.412 186.151 734 238.834 734 325 c 0
 734 473 605 529 473 529 c 0
 320 529 183 472 183 305 c 0
 183 84 323 63 462 63 c 0
 474.147 63 486.689 62.8454 499.518 62.8454 c 0
 555.864 62.8454 617.743 65.8285 676 98 c 1
 699 72 725 48 748 21 c 1
 660.403 -45.3059 604.132 -41.7501 449 -43 c 0
EndSplineSet
EndChar
StartChar: A
Encoding: 65 65 50
Width: 987
Flags: HMW
Validated: 1
HStem: 0 124<20 146 331 391 20 146 596 644 888 967> 167 114<356 563 424 563 424 622>
Fore
424 281 m 1
 563 281 l 1
 499 406 l 1
 424 281 l 1
20 0 m 1
 20 124 l 1
 146 124 l 1
 456 616 l 1
 586 650 l 1
 888 124 l 1
 967 124 l 1
 967 0 l 1
 596 0 l 1
 596 124 l 1
 644 124 l 1
 622 167 l 1
 356 167 l 1
 331 124 l 1
 391 124 l 1
 391 0 l 1
 20 0 l 1
EndSplineSet
EndChar
StartChar: B
Encoding: 66 66 51
Width: 920
Flags: HMW
Validated: 1
HStem: 0 124<40 144 351 500 40 144> 267 116G 504 116G<351 551 509 515>
VStem: 144 207<124 269 124 383 383 504> 607 213G
Fore
351 124 m 1
 504 124 l 2
 632 124 656 142 656 192 c 0
 656 260 624 269 492 269 c 2
 351 269 l 1
 351 124 l 1
351 383 m 1
 580 383 l 1
 595 388 608 402 608 437 c 0
 608 500 567.038 504 515 504 c 2
 351 504 l 1
 351 383 l 1
522 619 m 2
 678.374 619 820 601.64 820 453 c 0
 820 412 802 380 773 355 c 1
 839 329 880 280 880 192 c 0
 880 17 681 0 500 0 c 2
 40 0 l 1
 40 124 l 1
 144 124 l 1
 144 504 l 1
 40 504 l 1
 40 619 l 1
 522 619 l 2
EndSplineSet
EndChar
StartChar: C
Encoding: 67 67 52
Width: 944
Flags: HMW
Validated: 1
HStem: -11 120<450 581 450 674.5> 509 129G<444 570 379.5 589>
VStem: 20 244<242 381 242 421.5> 780 138G
Fore
20 313 m 0
 20 530 240 638 519 638 c 0
 621 638 722 601 779 566 c 1
 779 620 l 1
 918 620 l 1
 918 323 l 1
 779 323 l 1
 779 359 l 2
 779 443 658 509 520 509 c 0
 368 509 264 449 264 313 c 0
 264 171 381 109 519 109 c 0
 643 109 739 150 779 247 c 1
 924 247 l 1
 924 146 829 -11 520 -11 c 0
 214 -11 20 77 20 313 c 0
EndSplineSet
EndChar
StartChar: D
Encoding: 68 68 53
Width: 956
Flags: HMW
Validated: 1
HStem: 1 124<40 144 351 500 40 144> 504 115G<40 144 40 488 351 488 488 492 351 351>
VStem: 144 207<125 504> 691 225G
Fore
351 125 m 1
 504 125 l 2
 653 125 692 185 692 315 c 0
 692 443 642 504 492 504 c 2
 351 504 l 1
 351 125 l 1
40 1 m 1
 40 125 l 1
 144 125 l 1
 144 504 l 1
 40 504 l 1
 40 619 l 1
 488 619 l 2
 737 619 916 530 916 315 c 0
 916 100 751 1 500 1 c 2
 40 1 l 1
EndSplineSet
EndChar
StartChar: E
Encoding: 69 69 54
Width: 861
Flags: HMW
Validated: 1
HStem: 0 124<40 144 351 683 40 144> 260 115G<351 579 351 579> 504 115G<40 144 40 821 351 351 351 683>
VStem: 144 207<124 260 375 504> 683 138G<124 241 0 241 379 504 504 504>
Fore
40 0 m 1
 40 124 l 1
 144 124 l 1
 144 504 l 1
 40 504 l 1
 40 619 l 1
 821 619 l 1
 821 379 l 1
 683 379 l 1
 683 504 l 1
 351 504 l 1
 351 375 l 1
 579 375 l 1
 579 260 l 1
 351 260 l 1
 351 124 l 1
 683 124 l 1
 683 241 l 1
 821 241 l 1
 821 0 l 1
 40 0 l 1
EndSplineSet
EndChar
StartChar: F
Encoding: 70 70 55
Width: 861
Flags: HMW
Validated: 1
HStem: 0 124<40 144 351 459 40 144> 260 115G<351 579 351 579> 504 115G<40 144 40 821 351 683 351 351>
VStem: 144 207<124 260 375 504> 683 138G<379 504 504 504>
Fore
40 0 m 1
 40 124 l 1
 144 124 l 1
 144 504 l 1
 40 504 l 1
 40 619 l 1
 821 619 l 1
 821 379 l 1
 683 379 l 1
 683 504 l 1
 351 504 l 1
 351 375 l 1
 579 375 l 1
 579 260 l 1
 351 260 l 1
 351 124 l 1
 459 124 l 1
 459 0 l 1
 40 0 l 1
EndSplineSet
EndChar
StartChar: G
Encoding: 71 71 56
Width: 954
Flags: HMW
Validated: 1
HStem: -11 120<461.5 574.5> 185 115<598 726 598 934> 509 129G<455.5 572 382 601>
VStem: 20 244<242.5 380.5 242.5 422> 792 138G
Fore
20 313 m 0
 20 531 243 638 521 638 c 0
 623 638 734 601 791 566 c 1
 791 620 l 1
 930 620 l 1
 930 323 l 1
 791 323 l 1
 791 359 l 2
 791 443 670 509 532 509 c 0
 379 509 264 448 264 313 c 0
 264 172 392 109 531 109 c 0
 633 109 703 135 726 185 c 1
 598 185 l 1
 598 300 l 1
 934 300 l 1
 934 3 l 1
 817 3 l 1
 781 52 l 1
 718 10 627 -11 522 -11 c 0
 216 -11 20 76 20 313 c 0
EndSplineSet
EndChar
StartChar: H
Encoding: 72 72 57
Width: 1051
Flags: HMW
Validated: 1
HStem: 0 124<40 144 351 459 40 144 592 696 903 1011> 260 115G<351 696 351 696> 504 115G<40 144 40 459 351 351 351 459 592 696 903 903 903 1011>
VStem: 144 207<124 260 375 504> 696 207G<124 260 260 260 375 504 124 504>
Fore
40 0 m 1
 40 124 l 1
 144 124 l 1
 144 504 l 1
 40 504 l 1
 40 619 l 1
 459 619 l 1
 459 504 l 1
 351 504 l 1
 351 375 l 1
 696 375 l 1
 696 504 l 1
 592 504 l 1
 592 619 l 1
 1011 619 l 1
 1011 504 l 1
 903 504 l 1
 903 124 l 1
 1011 124 l 1
 1011 0 l 1
 592 0 l 1
 592 124 l 1
 696 124 l 1
 696 260 l 1
 351 260 l 1
 351 124 l 1
 459 124 l 1
 459 0 l 1
 40 0 l 1
EndSplineSet
EndChar
StartChar: I
Encoding: 73 73 58
Width: 499
Flags: HMW
Validated: 1
HStem: 0 124<40 144 351 459 40 144> 504 115G<40 144 40 459 351 351 351 459>
VStem: 144 207<124 504>
Fore
40 0 m 1
 40 124 l 1
 144 124 l 1
 144 504 l 1
 40 504 l 1
 40 619 l 1
 459 619 l 1
 459 504 l 1
 351 504 l 1
 351 124 l 1
 459 124 l 1
 459 0 l 1
 40 0 l 1
EndSplineSet
EndChar
StartChar: J
Encoding: 74 74 59
Width: 680
Flags: HMW
Validated: 1
HStem: -20 119<265 266 266 289.5 265 339> 504 115G<195 324 195 638 530 638 530 530>
VStem: 323 208G
Fore
215 226 m 1
 215 157 l 2
 215 116 236 99 265 99 c 0
 312 99 323 111.99 323 160 c 2
 323 504 l 1
 195 504 l 1
 195 619 l 1
 638 619 l 1
 638 504 l 1
 530 504 l 1
 530 169 l 2
 530 34 401 -20 277 -20 c 0
 136 -20 33 57 32 226 c 1
 215 226 l 1
EndSplineSet
EndChar
StartChar: K
Encoding: 75 75 60
Width: 915
Flags: HMW
Validated: 1
HStem: 0 124<40 144 351 435 40 144 774 895> 504 115G<40 144 40 435 351 351 351 435 733 847 733 733>
VStem: 144 207<124 165 124 340 340 504> 536 311G<508 619 504 619>
Fore
40 0 m 1
 40 124 l 1
 144 124 l 1
 144 504 l 1
 40 504 l 1
 40 619 l 1
 435 619 l 1
 435 504 l 1
 351 504 l 1
 351 340 l 1
 536 508 l 1
 536 619 l 1
 847 619 l 1
 847 504 l 1
 733 504 l 1
 534 327 l 1
 774 124 l 1
 895 124 l 1
 895 0 l 1
 636 0 l 1
 404 212 l 1
 351 165 l 1
 351 124 l 1
 435 124 l 1
 435 0 l 1
 40 0 l 1
EndSplineSet
EndChar
StartChar: L
Encoding: 76 76 61
Width: 861
Flags: HMW
Validated: 1
HStem: 0 124<40 144 351 683 40 144> 504 115G<40 144 40 459 351 351 351 459>
VStem: 144 207<124 504 124 504> 683 138G<124 241 0 241>
Fore
40 0 m 1
 40 124 l 1
 144 124 l 1
 144 504 l 1
 40 504 l 1
 40 619 l 1
 459 619 l 1
 459 504 l 1
 351 504 l 1
 351 124 l 1
 683 124 l 1
 683 241 l 1
 821 241 l 1
 821 0 l 1
 40 0 l 1
EndSplineSet
EndChar
StartChar: M
Encoding: 77 77 62
Width: 1238
Flags: HMW
Validated: 1
HStem: 0 124<40 144 303 447 40 144 779 887 1094 1198> 504 115G<40 144 40 298 1094 1094 1094 1198>
VStem: 144 159<124 327 124 504> 887 207G<124 326 326 326>
Fore
40 0 m 1
 40 124 l 1
 144 124 l 1
 144 504 l 1
 40 504 l 1
 40 619 l 1
 320 619 l 1
 614 274 l 1
 906 613 l 1
 1198 613 l 1
 1198 504 l 1
 1094 504 l 1
 1094 124 l 1
 1198 124 l 1
 1198 0 l 1
 779 0 l 1
 779 124 l 1
 887 124 l 1
 887 326 l 1
 619 1 l 1
 576 1 l 1
 303 327 l 1
 303 124 l 1
 447 124 l 1
 447 0 l 1
 40 0 l 1
EndSplineSet
EndChar
StartChar: N
Encoding: 78 78 63
Width: 1003
Flags: HMW
Validated: 1
HStem: 0 124<40 144 303 411 40 144> 504 115G<40 144 40 322 592 696 855 855 855 963>
VStem: 144 159<124 378 124 504 124 504> 696 159G<294 504 0 504>
Fore
40 0 m 1
 40 124 l 1
 144 124 l 1
 144 504 l 1
 40 504 l 1
 40 619 l 1
 343 619 l 1
 696 294 l 1
 696 504 l 1
 592 504 l 1
 592 619 l 1
 963 619 l 1
 963 504 l 1
 855 504 l 1
 855 0 l 1
 724.168 0.187417 l 1
 303 378 l 1
 303 124 l 1
 411 124 l 1
 411 0 l 1
 40 0 l 1
EndSplineSet
EndChar
StartChar: O
Encoding: 79 79 64
Width: 1039
Flags: HMW
Validated: 1
HStem: -11 120<450 596.5 450 673> 509 129G<444 595>
VStem: 20 244<242 381 242 421.5> 775 244G
Fore
264 313 m 0
 264 171 381 109 519 109 c 0
 674 109 776 172 776 313 c 0
 776 442 670 509 520 509 c 0
 368 509 264 449 264 313 c 0
20 313 m 0
 20 530 240 638 519 638 c 0
 798 638 1019 530 1019 313 c 0
 1019 77 826 -11 520 -11 c 0
 214 -11 20 77 20 313 c 0
EndSplineSet
EndChar
StartChar: P
Encoding: 80 80 65
Width: 860
Flags: HMW
Validated: 1
HStem: 0 124<44 144 351 463 44 144> 264 105G<351 440 351 444> 504 115G<40 144 40 428 351 428 428 432 351 351 40 515>
VStem: 144 207<124 264 124 369 369 504> 607 213G
Fore
522 619 m 2
 678.374 619 820 601.64 820 453 c 0
 820 284 625 264 440 264 c 2
 351 264 l 1
 351 124 l 1
 463 124 l 1
 463 0 l 1
 44 0 l 1
 44 124 l 1
 144 124 l 1
 144 504 l 1
 40 504 l 1
 40 619 l 1
 522 619 l 2
351 369 m 1
 444 369 l 2
 590 369 608 383 608 437 c 0
 608 500 567.038 504 515 504 c 2
 351 504 l 1
 351 369 l 1
EndSplineSet
EndChar
StartChar: Q
Encoding: 81 81 66
Width: 1077
Flags: HMW
Validated: 1
HStem: -17 121<450 530.5 450 557> 508 130G<444 595>
VStem: 20 244<239 379 239 420.5> 775 244G
Fore
264 311 m 0
 264 167 381 104 519 104 c 0
 542 104 564 106 584 109 c 1
 494 182 l 1
 621 285 l 1
 747 198 l 1
 765 227 776 264 776 311 c 0
 776 441 670 508 520 508 c 0
 368 508 264 447 264 311 c 0
20 311 m 0
 20 530 240 638 519 638 c 0
 798 638 1019 530 1019 311 c 0
 1019 210 984 133 917 80 c 1
 1057 -17 l 1
 873 -128 l 1
 718 -1 l 1
 660 -12 594 -17 520 -17 c 0
 214 -17 20 72 20 311 c 0
EndSplineSet
EndChar
StartChar: R
Encoding: 82 82 67
Width: 923
Flags: HMW
Validated: 1
HStem: 0 124<44 144 351 463 44 144 773 883> 264 105G<351 400 351 444> 504 115G<40 144 40 428 351 372.5 40 515>
VStem: 144 207<124 264 124 369 369 504> 607 213G
Fore
522 619 m 2
 678.374 619 820 601.64 820 453 c 0
 820 337 731 293 628 275 c 1
 773 124 l 1
 883 124 l 1
 883 0 l 1
 623 0 l 1
 400 264 l 1
 351 264 l 1
 351 124 l 1
 463 124 l 1
 463 0 l 1
 44 0 l 1
 44 124 l 1
 144 124 l 1
 144 504 l 1
 40 504 l 1
 40 619 l 1
 522 619 l 2
351 369 m 1
 444 369 l 2
 590 369 608 383 608 437 c 0
 608 500 567 502 515 504 c 0
 503 504 492 505 479 505 c 0
 436 505 394 504 351 504 c 1
 351 369 l 1
EndSplineSet
EndChar
StartChar: S
Encoding: 83 83 68
Width: 822
Flags: HMW
Validated: 1
HStem: -22 130<378 460.5 378 540> 518 130G<394 432 318 456>
VStem: 58 206 575 207G<144.5 180>
Fore
410 518 m 0
 301.693 518 263 508.3 263 457 c 0
 263 434 298 428 339 421 c 0
 504 391 782 418 782 180 c 0
 782 57 666 -22 414 -22 c 0
 316 -22 230 -4 178 23 c 1
 178 -4 l 1
 40 -4 l 1
 40 247 l 1
 178 247 l 1
 178 211 l 2
 178 128 325 108 431 108 c 0
 490 108 575 123 575 166 c 0
 575 226.995 491.717 213.236 338 233 c 0
 264 243 58 281 58 436 c 0
 58 605 250 648 386 648 c 0
 478 648 588 615 637 581 c 1
 637 630 l 1
 775 630 l 1
 775 389 l 1
 637 389 l 1
 637 425 l 2
 637 490 502 518 410 518 c 0
EndSplineSet
EndChar
StartChar: T
Encoding: 84 84 69
Width: 962
Flags: HMW
Validated: 1
HStem: 0 124<249 378 584 716 249 378> 504 115G<178 378 178 178 584 784 584 584>
VStem: 40 138<379 504 379 619 379 619> 378 207 784 138G<379 504 504 504>
Fore
40 379 m 1
 40 619 l 1
 922 619 l 1
 922 379 l 1
 784 379 l 1
 784 504 l 1
 584 504 l 1
 584 124 l 1
 716 124 l 1
 716 0 l 1
 249 0 l 1
 249 124 l 1
 378 124 l 1
 378 504 l 1
 178 504 l 1
 178 379 l 1
 40 379 l 1
EndSplineSet
EndChar
StartChar: U
Encoding: 85 85 70
Width: 1003
Flags: HMW
Validated: 1
HStem: -20 131 504 115G<40 144 40 459 351 351 351 459 592 696 855 963 855 855>
VStem: 144 207<196 220 220 504> 696 159G<221 504>
Fore
40 504 m 1
 40 619 l 1
 459 619 l 1
 459 504 l 1
 351 504 l 1
 351 220 l 2
 351 145 401 111 520 111 c 0
 609 111 696 111 696 221 c 2
 696 504 l 1
 592 504 l 1
 592 619 l 1
 963 619 l 1
 963 504 l 1
 855 504 l 1
 855 196 l 2
 855 102.467 776.847 -20.006 514.843 -20.006 c 4
 254.112 -20.006 144 103.373 144 196 c 2
 144 504 l 1
 40 504 l 1
EndSplineSet
EndChar
StartChar: V
Encoding: 86 86 71
Width: 967
Flags: HMW
Validated: 1
HStem: -1 20 503 115G<10 90 10 381 334 381 334 334 586 656 838 838 838 957>
Fore
10 503 m 1
 10 618 l 1
 381 618 l 1
 381 503 l 1
 334 503 l 1
 501 213 l 1
 656 503 l 1
 586 503 l 1
 586 618 l 1
 957 618 l 1
 957 503 l 1
 838 503 l 1
 543 -1 l 1
 414 -1 l 1
 90 503 l 1
 10 503 l 1
EndSplineSet
EndChar
StartChar: W
Encoding: 87 87 72
Width: 1435
Flags: HMW
Validated: 1
HStem: -1 20 503 115G<10 89 10 381 332 381 332 332 502 581 825 825 825 933 1042 1113 1294 1294 1294 1425>
Fore
10 503 m 1
 10 618 l 1
 381 618 l 1
 381 503 l 1
 332 503 l 1
 490 213 l 1
 618 440 l 1
 581 503 l 1
 502 503 l 1
 502 618 l 1
 933 618 l 1
 933 503 l 1
 825 503 l 1
 969 216 l 1
 1113 503 l 1
 1042 503 l 1
 1042 618 l 1
 1425 618 l 1
 1425 503 l 1
 1294 503 l 1
 1012 -1 l 1
 881 -1 l 1
 698 307 l 1
 532 -1 l 1
 401 -1 l 1
 89 503 l 1
 10 503 l 1
EndSplineSet
EndChar
StartChar: X
Encoding: 88 88 73
Width: 979
Flags: HMW
Validated: 1
HStem: 0 115<10 133 327 381 10 133 574 601 885 969> 503 115G<27 110 27 386 359 386 359 359 591 641 826 826 826 950>
Fore
10 0 m 1
 10 115 l 1
 133 115 l 1
 355 302 l 1
 110 503 l 1
 27 503 l 1
 27 618 l 1
 386 618 l 1
 386 503 l 1
 359 503 l 1
 502 386 l 1
 641 503 l 1
 591 503 l 1
 591 618 l 1
 950 618 l 1
 950 503 l 1
 826 503 l 1
 607 324 l 1
 885 115 l 1
 969 115 l 1
 969 0 l 1
 574 0 l 1
 574 115 l 1
 601 115 l 1
 455 234 l 1
 327 115 l 1
 381 115 l 1
 381 0 l 1
 10 0 l 1
EndSplineSet
EndChar
StartChar: Y
Encoding: 89 89 74
Width: 967
Flags: HMW
Validated: 1
HStem: 0 124<274 378 585 693 274 378> 503 115G<10 92 10 381 347 347 347 381 586 645 835 835 835 957>
VStem: 378 207<124 224 224 224>
Fore
10 503 m 1
 10 618 l 1
 381 618 l 1
 381 503 l 1
 347 503 l 1
 501 350 l 1
 645 503 l 1
 586 503 l 1
 586 618 l 1
 957 618 l 1
 957 503 l 1
 835 503 l 1
 585 235 l 1
 585 124 l 1
 693 124 l 1
 693 0 l 1
 274 0 l 1
 274 124 l 1
 378 124 l 1
 378 224 l 1
 92 503 l 1
 10 503 l 1
EndSplineSet
EndChar
StartChar: Z
Encoding: 90 90 75
Width: 921
Flags: HMW
Validated: 1
HStem: 0 124<361 743 361 881> 504 115G<205 560 205 205>
VStem: 67 138<379 504 379 619 379 619> 743 138G<124 241 0 241>
Fore
40 0 m 1
 40 114 l 1
 560 504 l 1
 205 504 l 1
 205 379 l 1
 67 379 l 1
 67 619 l 1
 848 619 l 1
 848 515 l 1
 361 124 l 1
 743 124 l 1
 743 241 l 1
 881 241 l 1
 881 0 l 1
 40 0 l 1
EndSplineSet
EndChar
StartChar: bracketleft
Encoding: 91 91 76
Width: 557
Flags: HMW
Validated: 1
HStem: -101 127<262 502 262 502> 603 116G<55 502>
VStem: 55 207<26 602 26 719 26 719>
Fore
55 -101 m 1
 55 719 l 1
 502 719 l 1
 502 603 l 1
 262 603 l 1
 262 26 l 1
 502 26 l 1
 502 -101 l 1
 55 -101 l 1
EndSplineSet
EndChar
StartChar: backslash
Encoding: 92 92 77
Width: 535
Flags: W
Validated: 1
VStem: 19 496<-100 689 689 689>
Fore
19 689 m 1
 212 689 l 1
 515 -100 l 1
 323 -100 l 1
 19 689 l 1
EndSplineSet
EndChar
StartChar: bracketright
Encoding: 93 93 78
Width: 557
Flags: W
Validated: 1
HStem: -101 127<55 295> 603 116<55 295>
VStem: 55 447<-101 26 603 719 26 719 26 26> 295 207<26 603>
Fore
55 26 m 1xe0
 295 26 l 1
 295 603 l 1xd0
 55 603 l 1
 55 719 l 1
 502 719 l 1
 502 -101 l 1
 55 -101 l 1
 55 26 l 1xe0
EndSplineSet
EndChar
StartChar: asciicircum
Encoding: 94 94 79
Width: 1003
Flags: W
Validated: 1
HStem: 672 146<455 615 455 455>
VStem: 276 362<736.435 748 748 748 748 748>
Fore
276 748 m 1
 455 818 l 1
 638 748 l 1
 615 672 l 1
 455 734 l 1
 299 672 l 1
 276 748 l 1
EndSplineSet
EndChar
StartChar: underscore
Encoding: 95 95 80
Width: 608
Flags: HMW
Validated: 1
HStem: -103 81G<80 528 80 528>
Fore
80 -22 m 1
 528 -22 l 1
 528 -103 l 1
 80 -103 l 1
 80 -22 l 1
EndSplineSet
EndChar
StartChar: grave
Encoding: 96 96 81
Width: 230
Flags: W
Validated: 1
HStem: 672 146<35 191 35 35>
VStem: 24 190<736.435 748 721 748 721 721>
Fore
24 721 m 1
 35 818 l 1
 214 748 l 1
 191 672 l 1
 24 721 l 1
EndSplineSet
EndChar
StartChar: a
Encoding: 97 97 82
Width: 1027
Flags: HMW
Validated: 1
HStem: 0 124<60 186 371 431 60 186 636 684 928 1007> 167 114<396 603 464 603 464 662>
Fore
464 281 m 1
 603 281 l 1
 539 406 l 1
 464 281 l 1
60 0 m 1
 60 124 l 1
 186 124 l 1
 496 625 l 1
 645 625 l 1
 928 124 l 1
 1007 124 l 1
 1007 0 l 1
 636 0 l 1
 636 124 l 1
 684 124 l 1
 662 167 l 1
 396 167 l 1
 371 124 l 1
 431 124 l 1
 431 0 l 1
 60 0 l 1
EndSplineSet
EndChar
StartChar: b
Encoding: 98 98 83
Width: 920
Flags: HMW
Validated: 1
HStem: 0 124<40 144 351 500 40 144> 267 116G 504 116G<351 551 509 515>
VStem: 144 207<124 269 124 383 383 504> 607 213G
Fore
351 124 m 1
 504 124 l 2
 632 124 656 142 656 192 c 0
 656 260 624 269 492 269 c 2
 351 269 l 1
 351 124 l 1
351 383 m 1
 580 383 l 1
 595 388 608 402 608 437 c 0
 608 500 567.038 504 515 504 c 2
 351 504 l 1
 351 383 l 1
522 619 m 2
 678.374 619 820 601.64 820 453 c 0
 820 412 802 380 773 355 c 1
 839 329 880 280 880 192 c 0
 880 17 681 0 500 0 c 2
 40 0 l 1
 40 124 l 1
 144 124 l 1
 144 504 l 1
 40 504 l 1
 40 619 l 1
 522 619 l 2
EndSplineSet
EndChar
StartChar: c
Encoding: 99 99 84
Width: 944
Flags: HMW
Validated: 1
HStem: -11 120<450 581 450 674.5> 509 129G<444 570 379.5 589>
VStem: 20 244<242 381 242 421.5> 780 138G
Fore
20 313 m 0
 20 530 240 638 519 638 c 0
 621 638 722 601 779 566 c 1
 779 620 l 1
 918 620 l 1
 918 323 l 1
 779 323 l 1
 779 359 l 2
 779 443 658 509 520 509 c 0
 368 509 264 449 264 313 c 0
 264 171 381 109 519 109 c 0
 643 109 739 150 779 247 c 1
 924 247 l 1
 924 146 829 -11 520 -11 c 0
 214 -11 20 77 20 313 c 0
EndSplineSet
EndChar
StartChar: d
Encoding: 100 100 85
Width: 956
Flags: HMW
Validated: 1
HStem: 1 124<40 144 351 500 40 144> 504 115G<40 144 40 488 351 488 488 492 351 351>
VStem: 144 207<125 504> 691 225G
Fore
351 125 m 1
 504 125 l 2
 653 125 692 185 692 315 c 0
 692 443 642 504 492 504 c 2
 351 504 l 1
 351 125 l 1
40 1 m 1
 40 125 l 1
 144 125 l 1
 144 504 l 1
 40 504 l 1
 40 619 l 1
 488 619 l 2
 737 619 916 530 916 315 c 0
 916 100 751 1 500 1 c 2
 40 1 l 1
EndSplineSet
EndChar
StartChar: e
Encoding: 101 101 86
Width: 861
Flags: HMW
Validated: 1
HStem: 0 124<40 144 351 683 40 144> 260 115G<351 579 351 579> 504 115G<40 144 40 821 351 351 351 683>
VStem: 144 207<124 260 375 504> 683 138G<124 241 0 241 379 504 504 504>
Fore
40 0 m 1
 40 124 l 1
 144 124 l 1
 144 504 l 1
 40 504 l 1
 40 619 l 1
 821 619 l 1
 821 379 l 1
 683 379 l 1
 683 504 l 1
 351 504 l 1
 351 375 l 1
 579 375 l 1
 579 260 l 1
 351 260 l 1
 351 124 l 1
 683 124 l 1
 683 241 l 1
 821 241 l 1
 821 0 l 1
 40 0 l 1
EndSplineSet
EndChar
StartChar: f
Encoding: 102 102 87
Width: 861
Flags: HMW
Validated: 1
HStem: 0 124<40 144 351 459 40 144> 260 115G<351 579 351 579> 504 115G<40 144 40 821 351 683 351 351>
VStem: 144 207<124 260 375 504> 683 138G<379 504 504 504>
Fore
40 0 m 1
 40 124 l 1
 144 124 l 1
 144 504 l 1
 40 504 l 1
 40 619 l 1
 821 619 l 1
 821 379 l 1
 683 379 l 1
 683 504 l 1
 351 504 l 1
 351 375 l 1
 579 375 l 1
 579 260 l 1
 351 260 l 1
 351 124 l 1
 459 124 l 1
 459 0 l 1
 40 0 l 1
EndSplineSet
EndChar
StartChar: g
Encoding: 103 103 88
Width: 954
Flags: HMW
Validated: 1
HStem: -11 120<461.5 574.5> 185 115<598 726 598 934> 509 129G<455.5 572 382 601>
VStem: 20 244<242.5 380.5 242.5 422> 792 138G
Fore
20 313 m 0
 20 531 243 638 521 638 c 0
 623 638 734 601 791 566 c 1
 791 620 l 1
 930 620 l 1
 930 323 l 1
 791 323 l 1
 791 359 l 2
 791 443 670 509 532 509 c 0
 379 509 264 448 264 313 c 0
 264 172 392 109 531 109 c 0
 633 109 703 135 726 185 c 1
 598 185 l 1
 598 300 l 1
 934 300 l 1
 934 3 l 1
 817 3 l 1
 781 52 l 1
 718 10 627 -11 522 -11 c 0
 216 -11 20 76 20 313 c 0
EndSplineSet
EndChar
StartChar: h
Encoding: 104 104 89
Width: 1051
Flags: HMW
Validated: 1
HStem: 0 124<40 144 351 459 40 144 592 696 903 1011> 260 115G<351 696 351 696> 504 115G<40 144 40 459 351 351 351 459 592 696 903 903 903 1011>
VStem: 144 207<124 260 375 504> 696 207G<124 260 260 260 375 504 124 504>
Fore
40 0 m 1
 40 124 l 1
 144 124 l 1
 144 504 l 1
 40 504 l 1
 40 619 l 1
 459 619 l 1
 459 504 l 1
 351 504 l 1
 351 375 l 1
 696 375 l 1
 696 504 l 1
 592 504 l 1
 592 619 l 1
 1011 619 l 1
 1011 504 l 1
 903 504 l 1
 903 124 l 1
 1011 124 l 1
 1011 0 l 1
 592 0 l 1
 592 124 l 1
 696 124 l 1
 696 260 l 1
 351 260 l 1
 351 124 l 1
 459 124 l 1
 459 0 l 1
 40 0 l 1
EndSplineSet
EndChar
StartChar: i
Encoding: 105 105 90
Width: 499
Flags: HMW
Validated: 1
HStem: 0 124<40 144 351 459 40 144> 504 115G<40 144 40 459 351 351 351 459>
VStem: 144 207<124 504>
Fore
40 0 m 1
 40 124 l 1
 144 124 l 1
 144 504 l 1
 40 504 l 1
 40 619 l 1
 459 619 l 1
 459 504 l 1
 351 504 l 1
 351 124 l 1
 459 124 l 1
 459 0 l 1
 40 0 l 1
EndSplineSet
EndChar
StartChar: j
Encoding: 106 106 91
Width: 680
Flags: HMW
Validated: 1
HStem: -20 119<265 266 266 289.5 265 339> 504 115G<196 324 196 639 531 639 531 531>
VStem: 323 208G<160 160>
Fore
215 226 m 1
 215 157 l 2
 215 116 236 99 265 99 c 0
 312 99 323 111.99 323 160 c 2
 323 504 l 1
 196 504 l 1
 196 619 l 1
 639 619 l 1
 639 504 l 1
 531 504 l 1
 531 169 l 2
 531 34 401 -20 277 -20 c 0
 136 -20 34 57 32 226 c 1
 215 226 l 1
EndSplineSet
EndChar
StartChar: k
Encoding: 107 107 92
Width: 915
Flags: HMW
Validated: 1
HStem: 0 124<40 144 351 435 40 144 774 895> 504 115G<40 144 40 435 351 351 351 435 733 847 733 733>
VStem: 144 207<340 504> 536 311G<508 619 504 619>
Fore
40 0 m 1
 40 124 l 1
 144 124 l 1
 144 504 l 1
 40 504 l 1
 40 619 l 1
 435 619 l 1
 435 504 l 1
 351 504 l 1
 351 340 l 1
 536 508 l 1
 536 619 l 1
 847 619 l 1
 847 504 l 1
 733 504 l 1
 534 327 l 1
 774 124 l 1
 895 124 l 1
 895 0 l 1
 636 0 l 1
 352 260 l 1
 352 124 l 1
 435 124 l 1
 435 0 l 1
 40 0 l 1
EndSplineSet
EndChar
StartChar: l
Encoding: 108 108 93
Width: 861
Flags: HMW
Validated: 1
HStem: 0 124<40 144 351 683 40 144> 504 115G<40 144 40 459 351 351 351 459>
VStem: 144 207<124 504 124 504> 683 138G<124 241 0 241>
Fore
40 0 m 1
 40 124 l 1
 144 124 l 1
 144 504 l 1
 40 504 l 1
 40 619 l 1
 459 619 l 1
 459 504 l 1
 351 504 l 1
 351 124 l 1
 683 124 l 1
 683 241 l 1
 821 241 l 1
 821 0 l 1
 40 0 l 1
EndSplineSet
EndChar
StartChar: m
Encoding: 109 109 94
Width: 1238
Flags: HMW
Validated: 1
HStem: 0 124<40 144 303 447 40 144 779 887 1094 1198> 504 115G<40 144 40 298 1094 1094 1094 1198>
VStem: 144 159<124 327 124 504> 887 207G<124 326 326 326>
Fore
40 0 m 1
 40 124 l 1
 144 124 l 1
 144 504 l 1
 40 504 l 1
 40 619 l 1
 320 619 l 1
 614 274 l 1
 906 613 l 1
 1198 613 l 1
 1198 504 l 1
 1094 504 l 1
 1094 124 l 1
 1198 124 l 1
 1198 0 l 1
 779 0 l 1
 779 124 l 1
 887 124 l 1
 887 326 l 1
 619 1 l 1
 576 1 l 1
 303 327 l 1
 303 124 l 1
 447 124 l 1
 447 0 l 1
 40 0 l 1
EndSplineSet
EndChar
StartChar: n
Encoding: 110 110 95
Width: 1003
Flags: HMW
Validated: 1
HStem: 0 124<40 144 303 411 40 144> 504 115G<40 144 40 322 592 696 855 855 855 963>
VStem: 144 159<124 378 124 504 124 504> 696 159G<294 504 0 504>
Fore
40 0 m 1
 40 124 l 1
 144 124 l 1
 144 504 l 1
 40 504 l 1
 40 619 l 1
 343 619 l 1
 696 294 l 1
 696 504 l 1
 592 504 l 1
 592 619 l 1
 963 619 l 1
 963 504 l 1
 855 504 l 1
 855 0 l 1
 724.168 0.187417 l 1
 303 378 l 1
 303 124 l 1
 411 124 l 1
 411 0 l 1
 40 0 l 1
EndSplineSet
EndChar
StartChar: o
Encoding: 111 111 96
Width: 1039
Flags: HMW
Validated: 1
HStem: -11 120<450 596.5 450 673> 509 129G<444 595>
VStem: 20 244<242 381 242 421.5> 775 244G
Fore
264 313 m 0
 264 171 381 109 519 109 c 0
 674 109 776 172 776 313 c 0
 776 442 670 509 520 509 c 0
 368 509 264 449 264 313 c 0
20 313 m 0
 20 530 240 638 519 638 c 0
 798 638 1019 530 1019 313 c 0
 1019 77 826 -11 520 -11 c 0
 214 -11 20 77 20 313 c 0
EndSplineSet
EndChar
StartChar: p
Encoding: 112 112 97
Width: 860
Flags: HMW
Validated: 1
HStem: 0 124<44 144 351 463 44 144> 264 105G<351 440 351 444> 504 115G<40 144 40 428 351 428 428 432 351 351 40 515>
VStem: 144 207<124 264 124 369 369 504> 607 213G
Fore
522 619 m 2
 678.374 619 820 601.64 820 453 c 0
 820 284 625 264 440 264 c 2
 351 264 l 1
 351 124 l 1
 463 124 l 1
 463 0 l 1
 44 0 l 1
 44 124 l 1
 144 124 l 1
 144 504 l 1
 40 504 l 1
 40 619 l 1
 522 619 l 2
351 369 m 1
 444 369 l 2
 590 369 608 383 608 437 c 0
 608 500 567.038 504 515 504 c 2
 351 504 l 1
 351 369 l 1
EndSplineSet
EndChar
StartChar: q
Encoding: 113 113 98
Width: 1039
Flags: HMW
Validated: 1
HStem: -11 120<450 546.5 450 549> 170 65 509 129G<444 595>
VStem: 20 244<242 381 242 421.5> 775 244G
Fore
264 313 m 0
 264 160.001 398.334 108.542 520.691 108.542 c 0
 573.182 108.542 623.47 118.013 660 133 c 1
 641.86 168.372 616.801 170.018 566.79 170.018 c 0
 561.661 170.018 544.395 170 539 170 c 1
 539 231 l 1
 577.5 235 597.709 238.889 646.555 238.889 c 0
 679.859 238.889 727.162 223.581 760 217.5 c 1
 770 242.5 776 281 776 313 c 0
 776 442 670 509 520 509 c 0
 368 509 264 449 264 313 c 0
20 313 m 0
 20 530 240 638 519 638 c 0
 798 638 1019 530 1019 313 c 0
 1019 199 974 119 893 68 c 1
 896 35 906 6 945 6 c 0
 977.013 6 980 37.5 985.09 62.8018 c 0
 985.552 65.0995 985.058 71.5454 985 74 c 1
 1052 74 l 1
 1052 8 l 2
 1052 -69 943 -90 884 -90 c 0
 789 -90 709 -79 682 -1 c 1
 633 -8 578 -11 520 -11 c 0
 214 -11 20 77 20 313 c 0
EndSplineSet
EndChar
StartChar: r
Encoding: 114 114 99
Width: 923
Flags: HMW
Validated: 1
HStem: 0 124<44 144 351 463 44 144> 264 105G<351 400 351 444> 505 115G
VStem: 144 207<124 264 124 369 369 504> 607 213G
Fore
522 620 m 0
 707.062 620 820 586.6 820 453 c 0
 820 337 731 293 628 275 c 1
 656 262 742 250 742 168 c 0
 742 125 744 76 795 76 c 0
 827.013 76 835.09 96.0498 835.09 133.802 c 0
 835.09 136.146 835.058 141.545 835 144 c 1
 902 144 l 1
 902 78 l 2
 902 1 793 -20 734 -20 c 0
 616 -20 522 -3 522 137 c 0
 522 244 476 264 400 264 c 2
 351 264 l 1
 351 124 l 1
 463 124 l 1
 463 0 l 1
 44 0 l 1
 44 124 l 1
 144 124 l 1
 144 504 l 1
 40 504 l 1
 40 619 l 1
 201 619 362 620 522 620 c 0
351 369 m 1
 444 369 l 2
 590 369 608 383 608 437 c 0
 608 500 567 502 515 504 c 0
 496.667 504.667 472.333 504.889 448.037 504.889 c 0
 399.444 504.889 351 504 351 504 c 1
 351 369 l 1
EndSplineSet
EndChar
StartChar: s
Encoding: 115 115 100
Width: 822
Flags: HMW
Validated: 1
HStem: -22 130<378 460.5 378 540> 518 130G<394 432 318 456>
VStem: 58 206 575 207G<144.5 180>
Fore
410 518 m 0
 301.693 518 263 508.3 263 457 c 0
 263 434 298 428 339 421 c 0
 504 391 782 418 782 180 c 0
 782 57 666 -22 414 -22 c 0
 316 -22 230 -4 178 23 c 1
 178 -4 l 1
 40 -4 l 1
 40 247 l 1
 178 247 l 1
 178 211 l 2
 178 128 325 108 431 108 c 0
 490 108 575 123 575 166 c 0
 575 226.995 491.717 213.236 338 233 c 0
 264 243 58 281 58 436 c 0
 58 605 250 648 386 648 c 0
 478 648 588 615 637 581 c 1
 637 630 l 1
 775 630 l 1
 775 389 l 1
 637 389 l 1
 637 425 l 2
 637 490 502 518 410 518 c 0
EndSplineSet
EndChar
StartChar: t
Encoding: 116 116 101
Width: 962
Flags: HMW
Validated: 1
HStem: 0 124<249 378 584 716 249 378> 504 115G<178 378 178 178 584 784 584 584>
VStem: 40 138<379 504 379 619 379 619> 378 207 784 138G<379 504 504 504>
Fore
40 379 m 1
 40 619 l 1
 922 619 l 1
 922 379 l 1
 784 379 l 1
 784 504 l 1
 584 504 l 1
 584 124 l 1
 716 124 l 1
 716 0 l 1
 249 0 l 1
 249 124 l 1
 378 124 l 1
 378 504 l 1
 178 504 l 1
 178 379 l 1
 40 379 l 1
EndSplineSet
EndChar
StartChar: u
Encoding: 117 117 102
Width: 1003
Flags: HMW
Validated: 1
HStem: -20 131 504 115G<40 144 40 459 351 351 351 459 592 696 855 963 855 855>
VStem: 144 207<196 220 220 504> 696 159G<221 504>
Fore
40 504 m 1
 40 619 l 1
 459 619 l 1
 459 504 l 1
 351 504 l 1
 351 220 l 2
 351 145 401 111 520 111 c 0
 609 111 696 111 696 221 c 2
 696 504 l 1
 592 504 l 1
 592 619 l 1
 963 619 l 1
 963 504 l 1
 855 504 l 1
 855 196 l 2
 855 102.467 776.847 -20.006 514.843 -20.006 c 4
 254.112 -20.006 144 103.373 144 196 c 2
 144 504 l 1
 40 504 l 1
EndSplineSet
EndChar
StartChar: v
Encoding: 118 118 103
Width: 967
Flags: HMW
Validated: 1
HStem: -1 20 503 115G<10 90 10 381 334 381 334 334 586 656 838 838 838 957>
Fore
10 503 m 1
 10 618 l 1
 381 618 l 1
 381 503 l 1
 334 503 l 1
 501 213 l 1
 656 503 l 1
 586 503 l 1
 586 618 l 1
 957 618 l 1
 957 503 l 1
 838 503 l 1
 543 -1 l 1
 414 -1 l 1
 90 503 l 1
 10 503 l 1
EndSplineSet
EndChar
StartChar: w
Encoding: 119 119 104
Width: 1435
Flags: HMW
Validated: 1
HStem: -1 20 503 115G<10 89 10 381 332 381 332 332 502 581 825 825 825 933 1042 1113 1294 1294 1294 1425>
Fore
10 503 m 1
 10 618 l 1
 381 618 l 1
 381 503 l 1
 332 503 l 1
 490 213 l 1
 618 440 l 1
 581 503 l 1
 502 503 l 1
 502 618 l 1
 933 618 l 1
 933 503 l 1
 825 503 l 1
 969 216 l 1
 1113 503 l 1
 1042 503 l 1
 1042 618 l 1
 1425 618 l 1
 1425 503 l 1
 1294 503 l 1
 1012 -1 l 1
 881 -1 l 1
 698 307 l 1
 532 -1 l 1
 401 -1 l 1
 89 503 l 1
 10 503 l 1
EndSplineSet
EndChar
StartChar: x
Encoding: 120 120 105
Width: 979
Flags: HMW
Validated: 1
HStem: 0 115<10 133 327 381 10 133 574 601 885 969> 503 115G<27 110 27 386 359 386 359 359 591 641 826 826 826 950>
Fore
10 0 m 1
 10 115 l 1
 133 115 l 1
 355 302 l 1
 110 503 l 1
 27 503 l 1
 27 618 l 1
 386 618 l 1
 386 503 l 1
 359 503 l 1
 502 386 l 1
 641 503 l 1
 591 503 l 1
 591 618 l 1
 950 618 l 1
 950 503 l 1
 826 503 l 1
 607 324 l 1
 885 115 l 1
 969 115 l 1
 969 0 l 1
 574 0 l 1
 574 115 l 1
 601 115 l 1
 455 234 l 1
 327 115 l 1
 381 115 l 1
 381 0 l 1
 10 0 l 1
EndSplineSet
EndChar
StartChar: y
Encoding: 121 121 106
Width: 967
Flags: HMW
Validated: 1
HStem: 0 124<274 378 585 693 274 378> 503 115G<10 92 10 381 347 347 347 381 586 645 835 835 835 957>
VStem: 378 207<124 224 224 224>
Fore
10 503 m 1
 10 618 l 1
 381 618 l 1
 381 503 l 1
 347 503 l 1
 501 350 l 1
 645 503 l 1
 586 503 l 1
 586 618 l 1
 957 618 l 1
 957 503 l 1
 835 503 l 1
 585 235 l 1
 585 124 l 1
 693 124 l 1
 693 0 l 1
 274 0 l 1
 274 124 l 1
 378 124 l 1
 378 224 l 1
 92 503 l 1
 10 503 l 1
EndSplineSet
EndChar
StartChar: z
Encoding: 122 122 107
Width: 921
Flags: HMW
Validated: 1
HStem: 0 124<361 743 361 881> 504 115G<205 560 205 205>
VStem: 67 138<379 504 379 619 379 619> 743 138G<124 241 0 241>
Fore
40 0 m 1
 40 114 l 1
 560 504 l 1
 205 504 l 1
 205 379 l 1
 67 379 l 1
 67 619 l 1
 848 619 l 1
 848 515 l 1
 361 124 l 1
 743 124 l 1
 743 241 l 1
 881 241 l 1
 881 0 l 1
 40 0 l 1
EndSplineSet
EndChar
StartChar: braceleft
Encoding: 123 123 108
Width: 547
Flags: W
Validated: 1
HStem: -116 122.214<328.791 445.896> 613.041 116.959<330.804 449.624>
VStem: 135 170<27.8373 29 29 182.766 433.312 540 571.247 585.815>
Fore
135 29 m 0
 135 208 94 216 35 298 c 1
 35 337 l 1
 86.1967 404.258 134.981 396.197 134.981 571.247 c 0
 134.981 630.551 174.441 730 366 730 c 0
 419 730 434 730 512 719 c 1
 512 603 l 1
 481.479 603.456 437.471 613.041 398.501 613.041 c 0
 351.923 613.041 312.545 599.347 312 540 c 4
 311 386 261 360 229 333 c 1
 229 294 l 1
 292 244 304 260 305 81 c 0
 305.544 20.1068 354.27 6.21387 405.375 6.21387 c 0
 448.268 6.21387 492.835 16 512 16 c 1
 512 -101 l 1
 442 -112 428 -116 374 -116 c 0
 214 -116 135 -53 135 29 c 0
EndSplineSet
EndChar
StartChar: bar
Encoding: 124 124 109
Width: 527
Flags: W
Validated: 1
HStem: -100 789<200 327 200 327 200 200>
VStem: 200 127<-100 689>
Fore
200 -100 m 1
 200 689 l 1
 327 689 l 1
 327 -100 l 1
 200 -100 l 1
EndSplineSet
EndChar
StartChar: braceright
Encoding: 125 125 110
Width: 547
Flags: HMW
Validated: 1
HStem: -116 122 613 117G
VStem: 318 194G<298 333 333 333>
Fore
35 16 m 1
 54.165 16 98.9411 6.21369 141.964 6.21369 c 0
 193.226 6.21369 242 20.1068 242 81 c 0
 243 260 255 244 318 294 c 1
 318 333 l 1
 286 360 236 386 235 540 c 0
 235 599.347 195.573 613.041 148.838 613.041 c 0
 109.737 613.041 65.5206 603.456 35 603 c 1
 35 719 l 1
 113 730 128 730 181 730 c 0
 367.861 730 412.021 637.758 412.021 571.521 c 0
 412.021 570.676 412.014 569.836 412 569 c 0
 413 394 461 404 512 337 c 1
 512 298 l 1
 453 216 412 208 412 29 c 0
 412 -53 333 -116 173 -116 c 0
 119 -116 105 -112 35 -101 c 1
 35 16 l 1
EndSplineSet
EndChar
StartChar: asciitilde
Encoding: 126 126 111
Width: 530
Flags: HMW
Validated: 1
HStem: 423 75G
Fore
172 498 m 0
 244 498 305 427 362 427 c 0
 440 427 420 430 454 459 c 1
 489 407 l 1
 451 366 403 352 356 352 c 0
 264.634 352 223.568 423.01 152.485 423.01 c 0
 151.992 423.01 151.497 423.007 151 423 c 0
 106 422 108 415 79 386 c 1
 42 440 l 1
 69 469 121 498 172 498 c 0
EndSplineSet
EndChar
StartChar: Aring
Encoding: 197 197 113
Width: 987
Flags: W
Validated: 1
HStem: 0 124<20 146 331 391 596 644 888 967> 167 114<424 563>
Fore
424 281 m 1
 563 281 l 1
 499 406 l 1
 424 281 l 1
20 0 m 1
 20 124 l 1
 146 124 l 1
 456 616 l 1
 586 650 l 1
 888 124 l 1
 967 124 l 1
 967 0 l 1
 596 0 l 1
 596 124 l 1
 644 124 l 1
 622 167 l 1
 356 167 l 1
 331 124 l 1
 391 124 l 1
 391 0 l 1
 20 0 l 1
EndSplineSet
EndChar
StartChar: Odieresis
Encoding: 214 214 117
Width: 1039
Flags: W
Validated: 1
HStem: -11 120<395.555 653.792> 509 129<387.847 648.083>
VStem: 20 244<221.635 406.164> 776 243<219.46 400.331>
Fore
264 313 m 0
 264 171 381 109 519 109 c 0
 674 109 776 172 776 313 c 0
 776 442 670 509 520 509 c 0
 368 509 264 449 264 313 c 0
20 313 m 0
 20 530 240 638 519 638 c 0
 798 638 1019 530 1019 313 c 0
 1019 77 826 -11 520 -11 c 0
 214 -11 20 77 20 313 c 0
EndSplineSet
EndChar
StartChar: aring
Encoding: 229 229 124
Width: 987
Flags: W
Validated: 1
HStem: 0 124<60 186 371 431 636 684 928 1007> 167 114<464 603>
Fore
464 281 m 1
 603 281 l 1
 539 406 l 1
 464 281 l 1
60 0 m 1
 60 124 l 1
 186 124 l 1
 496 625 l 1
 645 625 l 1
 928 124 l 1
 1007 124 l 1
 1007 0 l 1
 636 0 l 1
 636 124 l 1
 684 124 l 1
 662 167 l 1
 396 167 l 1
 371 124 l 1
 431 124 l 1
 431 0 l 1
 60 0 l 1
EndSplineSet
EndChar
StartChar: degree
Encoding: 176 176 144
Width: 524
Flags: HMW
Validated: 1
HStem: 317 86 609 81G<234 296>
VStem: 40 145<473 522 473 559> 339 145G<489 521>
Fore
185 496 m 0
 185 450 215 404 265 404 c 0
 316 404 339 452 339 496 c 0
 339 546 327 609 265 609 c 0
 203 609 185 548 185 496 c 0
484 502 m 0
 484 385.301 380.351 317 264 317 c 0
 149 317 40 388 40 502 c 0
 40 616 152 690 264 690 c 0
 377 690 484 614 484 502 c 0
EndSplineSet
EndChar
StartChar: cent
Encoding: 162 162 145
Width: 743
Flags: HMW
Validated: 1
HStem: -10 83<357 357> 353 151G<357 453.5>
VStem: 55 171<166 263.5 166 286> 357 97G<-106 -10 -10 -10 442 504> 586 97G<170 431 222 248 248 277.5 393 431 222 431>
Fore
55 216 m 0
 55 356 185 430 357 442 c 1
 357 504 l 1
 454 504 l 1
 454 439 l 1
 507 431 556 412 586 393 c 1
 586 431 l 1
 683 431 l 1
 683 222 l 1
 586 222 l 1
 586 248 l 2
 586 307 502 353 405 353 c 0
 298 353 226 311 226 216 c 0
 226 116 308 73 405 73 c 0
 491 73 559 102 586 170 c 1
 688 170 l 1
 688 105 632 6 454 -9 c 1
 454 -106 l 1
 357 -106 l 1
 357 -10 l 1
 171 -1 55 63 55 216 c 0
EndSplineSet
EndChar
StartChar: sterling
Encoding: 163 163 146
Width: 820
Flags: HMW
Validated: 1
HStem: -22 20 27 138 241 115<35 144 35 144 35 154 369 369 369 586> 510 127G<406 472>
VStem: 129 219<411.5 457.5 411.5 496.5> 591 194G<-9 130.5>
Fore
375 166 m 0
 453 166 535.875 130 570 130 c 0
 586.802 130 591.408 144.906 591.408 169.557 c 0
 591.408 181.584 590.312 195.932 589 212 c 1
 777 212 l 1
 777 175 785 153 785 108 c 0
 785 36 730 -9 624 -9 c 2
 591 -9 l 2
 523 -2 461 27 393 27 c 0
 265 27 168 4 46 -22 c 1
 46 142 l 1
 91 176 136 195 154 241 c 1
 35 241 l 1
 35 356 l 1
 144 356 l 1
 136 376 129 396 129 426 c 0
 129 567 256 637 442 637 c 0
 578 637 767 580 767 407 c 1
 553 407 l 1
 553.038 408.558 553.057 417.095 553.057 418.609 c 0
 553.057 496.791 502.784 510 440 510 c 0
 372 510 348 492 348 423 c 0
 348 400 360 378 367 356 c 1
 586 356 l 1
 586 241 l 1
 369 241 l 1
 363 212 340 181 310 161 c 1
 325 162 360 166 375 166 c 0
EndSplineSet
EndChar
StartChar: bullet
Encoding: 8226 8226 147
Width: 414
Flags: HMW
Validated: 1
HStem: 294 205G<186 228 184 230>
VStem: 67 280<381 412 412 412>
Fore
67 377 m 1
 67 412 l 1
 132 427 169 455 186 499 c 1
 230 499 l 1
 243 448 279 429 347 417 c 1
 347 381 l 1
 282 366 245 338 228 294 c 1
 184 294 l 1
 171 345 135 365 67 377 c 1
EndSplineSet
EndChar
StartChar: registered
Encoding: 174 174 148
Width: 1040
Flags: HMW
Validated: 1
HStem: -9 78<446.5 600.5 446.5 658> 180 50<360 400 483 528 360 400> 286 42G 489 87G<440 598.5>
VStem: 70 181<209 355 209 381> 360 168<180 230 180 230> 586 85G<344 367.5> 789 181G<210 351.5>
Fore
251 284 m 0
 251 134 374 69 519 69 c 0
 682 69 789 136 789 284 c 0
 789 419 677 489 520 489 c 0
 360 489 251 426 251 284 c 0
70 283 m 0
 70 479 268 576 519 576 c 0
 770 576 970 479 970 283 c 0
 970 70 796 -9 520 -9 c 0
 244 -9 70 70 70 283 c 0
359 382 m 1
 359 428 l 1
 620 428 l 1
 650 420 671 397 671 361 c 0
 671 315 635 297 594 290 c 1
 605 285 639 280 639 247 c 0
 639 230 640 210 661 210 c 0
 674 210 677 221 677 238 c 1
 703 238 l 1
 703 211 l 2
 703 180 660 172 636 172 c 0
 485.752 172 604.75 285 503 285 c 2
 483 285 l 1
 483 230 l 1
 528 230 l 1
 528 180 l 1
 360 180 l 1
 360 230 l 1
 400 230 l 1
 400 382 l 1
 359 382 l 1
483 328 m 1
 520 328 l 2
 579 328 586 333 586 355 c 0
 586 380 570.023 382 548 382 c 2
 483 382 l 1
 483 328 l 1
EndSplineSet
EndChar
StartChar: copyright
Encoding: 169 169 149
Width: 1040
Flags: HMW
Validated: 1
HStem: -9 78<446.5 600.5 446.5 658> 154 48<513.5 566 513.5 603> 287 119G<645 700 645 700> 489 87G<440 598.5>
VStem: 70 181<209 355 209 381> 341 97 645 55G<257 406 287 302 302 318.5 385 406 287 406> 789 181G<210 351.5>
Fore
341 283 m 0
 341 372.453 437.159 412.789 527.883 412.789 c 0
 572.149 412.789 615.122 403.186 645 385 c 1
 645 406 l 1
 700 406 l 1
 700 287 l 1
 645 287 l 1
 645 302 l 2
 645 337.181 590.052 362.571 536.914 362.571 c 0
 487.164 362.571 439 340.315 439 283 c 0
 439 226 486 202 541 202 c 0
 591 202 629 218 645 257 c 1
 703 257 l 1
 703 217 665 154 541 154 c 0
 419 154 341 189 341 283 c 0
251 284 m 0
 251 134 374 69 519 69 c 0
 682 69 789 136 789 284 c 0
 789 419 677 489 520 489 c 0
 360 489 251 426 251 284 c 0
70 283 m 0
 70 479 268 576 519 576 c 0
 771 576 970 479 970 283 c 0
 970 70 796 -9 520 -9 c 0
 244 -9 70 70 70 283 c 0
EndSplineSet
EndChar
StartChar: trademark
Encoding: 8482 8482 150
Width: 930
Flags: HMW
Validated: 1
HStem: 381 50<134 185 268 321 134 185 417 458 522 580 712 756 838 880> 583 46G<105 185 105 105 268 348 268 268 50 417 417 458 838 838 838 880>
VStem: 50 55<533 583 533 629 533 629> 185 83<431 583 431 583> 348 55<533 583 583 583> 458 64G<431 512 431 583> 755 83G
Fore
50 533 m 1
 50 629 l 1
 403 629 l 1
 403 533 l 1
 348 533 l 1
 348 583 l 1
 268 583 l 1
 268 431 l 1
 321 431 l 1
 321 381 l 1
 134 381 l 1
 134 431 l 1
 185 431 l 1
 185 583 l 1
 105 583 l 1
 105 533 l 1
 50 533 l 1
417 381 m 1
 417 431 l 1
 458 431 l 1
 458 583 l 1
 417 583 l 1
 417 629 l 1
 520 629 l 1
 646 491 l 1
 763.989 628.149 l 1
 880 629 l 1
 880 583 l 1
 838 583 l 1
 838 431 l 1
 880 431 l 1
 880 381 l 1
 712 381 l 1
 712 431 l 1
 756 431 l 1
 756 512 l 1
 648 382 l 1
 631 382 l 1
 522 512 l 1
 522 431 l 1
 580 431 l 1
 580 381 l 1
 417 381 l 1
EndSplineSet
EndChar
StartChar: acute
Encoding: 180 180 151
Width: 230
Flags: W
Validated: 1
HStem: 672 146<43 199 199 199>
VStem: 20 190<736.435 748 721 748 748 748>
Fore
20 748 m 1
 199 818 l 1
 210 721 l 1
 43 672 l 1
 20 748 l 1
EndSplineSet
EndChar
StartChar: dieresis
Encoding: 168 168 152
Width: 1003
Flags: HMW
Validated: 5
VStem: 615 58<704 731 703.5 731.5>
Fore
536 717 m 1
 536 745 568 768 607 768 c 0
 646 768 678 745 678 718 c 0
 678 690 646 667 607 667 c 0
 568 667 536 690 536 718 c 1
 536 717 l 1
313 717 m 1
 313 745 345 768 384 768 c 0
 423 768 455 745 455 718 c 0
 455 690 423 667 384 667 c 0
 345 667 313 690 313 718 c 1
 313 717 l 1
EndSplineSet
EndChar
StartChar: notequal
Encoding: 8800 8800 153
Width: 604
Flags: HMW
Validated: 1
HStem: 77 106<90 208 90 238 347 514 90 317> 252 106G<90 258 90 288 396 514 90 367>
Fore
90 77 m 1
 90 183 l 1
 238 183 l 1
 258 252 l 1
 90 252 l 1
 90 358 l 1
 288 358 l 1
 325 489 l 1
 434 489 l 1
 396 358 l 1
 514 358 l 1
 514 252 l 1
 367 252 l 1
 347 183 l 1
 514 183 l 1
 514 77 l 1
 317 77 l 1
 267 -100 l 1
 158 -100 l 1
 208 77 l 1
 90 77 l 1
EndSplineSet
EndChar
StartChar: plusminus
Encoding: 177 177 154
Width: 608
Flags: HMW
Validated: 1
HStem: 264 108G
VStem: 236 138G<147 263 147 263 372 487>
Fore
80 263 m 1
 80 372 l 1
 236 372 l 1
 236 487 l 1
 374 487 l 1
 374 372 l 1
 528 372 l 1
 528 263 l 1
 374 263 l 1
 374 147 l 1
 236 147 l 1
 236 263 l 1
 80 263 l 1
80 38 m 1
 528 38 l 1
 528 -43 l 1
 80 -43 l 1
 80 38 l 1
EndSplineSet
EndChar
StartChar: lessequal
Encoding: 8804 8804 155
Width: 552
Flags: HMW
Validated: 1
HStem: -143 81<80 528 80 528>
Fore
30 270 m 1
 403 561 l 1
 522 469 l 1
 265 269 l 1
 522 69 l 1
 403 -22 l 1
 30 270 l 1
80 -62 m 1
 528 -62 l 1
 528 -143 l 1
 80 -143 l 1
 80 -62 l 1
EndSplineSet
EndChar
StartChar: greaterequal
Encoding: 8805 8805 156
Width: 552
Flags: W
Validated: 1
HStem: -143 81<30 478> -22 21G<128.846 180.548>
VStem: 30 498<-62 270 -62 -62>
Fore
36 69 m 1
 293 269 l 1
 36 469 l 1
 155 561 l 1
 528 270 l 1
 155 -22 l 1
 36 69 l 1
30 -62 m 1
 478 -62 l 1
 478 -143 l 1
 30 -143 l 1
 30 -62 l 1
EndSplineSet
EndChar
StartChar: questiondown
Encoding: 191 191 158
Width: 789
Flags: HMW
Validated: 33
HStem: -16 127<365 432 365 460.5> 426 211G
VStem: 60 221
Fore
281 168 m 0
 281 144.217 278.995 111 399 111 c 0
 465 111 506 136 506 214 c 1
 730 214 l 1
 730 41 528 -16 393 -16 c 0
 175 -16 59 29 60 174 c 0
 61 268 133 302 213 326 c 0
 267 342 307 348 307 414 c 1
 538 414 l 1
 538 358 529 311 498 284 c 0
 457 248 385 222 353 217 c 0
 291 207 281 188 281 168 c 0
281 535 m 0
 281 596 342 637 409 637 c 0
 476 637 538 596 538 535 c 0
 538 474 478 427 409 427 c 0
 341 427 281 474 281 535 c 0
EndSplineSet
EndChar
StartChar: exclamdown
Encoding: 161 161 159
Width: 343
Flags: HMW
Validated: 1
HStem: -16 20 425 211G<136.5 203.5 136.5 204>
VStem: 40 258<503 564>
Fore
45 -16 m 1
 71 397 l 1
 277 397 l 1
 303 -16 l 1
 45 -16 l 1
40 533 m 0
 40 595 103 636 170 636 c 0
 237 636 298 595 298 533 c 0
 298 473 238 425 170 425 c 0
 101 425 40 473 40 533 c 0
EndSplineSet
EndChar
StartChar: approxequal
Encoding: 8776 8776 160
Width: 530
Flags: HMW
Validated: 33
HStem: 223 75 423 75G
Fore
172 498 m 0
 244 498 305 427 362 427 c 0
 440 427 420 430 454 459 c 1
 489 407 l 1
 451 366 403 352 356 352 c 0
 264 352 223 424 151 423 c 0
 106 422 108 415 79 386 c 1
 42 440 l 1
 69 469 121 498 172 498 c 0
172 298 m 0
 244 298 305 227 362 227 c 0
 440 227 420 230 454 259 c 1
 489 207 l 1
 451 166 403 152 356 152 c 0
 264 152 223 224 151 223 c 0
 106 222 108 215 79 186 c 1
 42 240 l 1
 69 269 121 298 172 298 c 0
EndSplineSet
EndChar
StartChar: guillemotleft
Encoding: 171 171 161
Width: 952
Flags: W
Validated: 1
HStem: -22 21G<373.397 449.667 773.397 849.667>
Fore
430 230 m 1
 803 481 l 1
 922 429 l 1
 665 229 l 1
 922 29 l 1
 803 -22 l 1
 430 230 l 1
30 230 m 1
 403 481 l 1
 522 429 l 1
 265 229 l 1
 522 29 l 1
 403 -22 l 1
 30 230 l 1
EndSplineSet
EndChar
StartChar: guillemotright
Encoding: 187 187 162
Width: 952
Flags: W
Validated: 1
HStem: -22 21G<102.333 178.603 502.333 578.603>
Fore
30 29 m 1
 287 229 l 1
 30 429 l 1
 149 481 l 1
 522 230 l 1
 149 -22 l 1
 30 29 l 1
430 29 m 1
 687 229 l 1
 430 429 l 1
 549 481 l 1
 922 230 l 1
 549 -22 l 1
 430 29 l 1
EndSplineSet
EndChar
StartChar: ellipsis
Encoding: 8230 8230 163
Width: 1060
Flags: HMW
Validated: 1
HStem: -15 204<164 237.5 492.5 566 822.5 896>
VStem: 60 281<54.5 113.5> 389 281<54.5 113.5> 719 281G<54.5 113.5>
Fore
719 84 m 0
 719 143 784 189 859 189 c 0
 935 189 1000 143 1000 84 c 0
 1000 25 933 -15 859 -15 c 0
 786 -15 719 25 719 84 c 0
389 84 m 0
 389 143 454 189 529 189 c 0
 604 189 670 143 670 84 c 0
 670 25 603 -15 529 -15 c 0
 456 -15 389 25 389 84 c 0
60 84 m 0
 60 143 125 189 201 189 c 0
 276 189 341 143 341 84 c 0
 341 25 274 -15 201 -15 c 0
 127 -15 60 25 60 84 c 0
EndSplineSet
EndChar
StartChar: Atilde
Encoding: 195 195 166
Width: 987
Flags: W
Validated: 1
HStem: 0 124<20 146 331 391 596 644 888 967> 167 114<424 563>
Fore
424 281 m 1
 563 281 l 1
 499 406 l 1
 424 281 l 1
20 0 m 1
 20 124 l 1
 146 124 l 1
 456 616 l 1
 586 650 l 1
 888 124 l 1
 967 124 l 1
 967 0 l 1
 596 0 l 1
 596 124 l 1
 644 124 l 1
 622 167 l 1
 356 167 l 1
 331 124 l 1
 391 124 l 1
 391 0 l 1
 20 0 l 1
EndSplineSet
EndChar
StartChar: endash
Encoding: 8211 8211 168
Width: 500
Flags: HMW
Validated: 1
HStem: 277 81G<26 474 26 474>
Fore
26 277 m 1
 26 358 l 1
 474 358 l 1
 474 277 l 1
 26 277 l 1
EndSplineSet
EndChar
StartChar: emdash
Encoding: 8212 8212 169
Width: 1000
Flags: HMW
Validated: 1
HStem: 277 81G<6 994 6 994>
Fore
6 277 m 1
 6 358 l 1
 994 358 l 1
 994 277 l 1
 6 277 l 1
EndSplineSet
EndChar
StartChar: quotedblleft
Encoding: 8220 8220 170
Width: 740
Flags: HMW
Validated: 33
VStem: 62 293<494 514.5> 386 293G<494 514.5>
Fore
679 494 m 0
 679 432 614 383 539 383 c 0
 466 383 385 430 386 494 c 0
 386 535 391 558 415 592 c 0
 446 636 486 658 556 694 c 1
 628 627 l 1
 597 612 578 604 565 597 c 1
 628 588 679 549 679 494 c 0
355 494 m 0
 355 432 290 383 215 383 c 0
 142 383 61 430 62 494 c 0
 62 535 67 558 91 592 c 0
 122 636 162 658 232 694 c 1
 304 627 l 1
 273 612 254 604 241 597 c 1
 304 588 355 549 355 494 c 0
EndSplineSet
EndChar
StartChar: quotedblright
Encoding: 8221 8221 171
Width: 740
Flags: HMW
Validated: 33
VStem: 61 293<557.5 578 557.5 609> 385 293G<557.5 578 557.5 609>
Fore
61 578 m 0
 61 640 126 689 202 689 c 0
 274 689 355 642 354 578 c 0
 354 537 349 514 325 480 c 0
 294 436 254 414 184 378 c 1
 112 445 l 1
 143 460 162 468 175 475 c 1
 113 484 61 523 61 578 c 0
385 578 m 0
 385 640 450 689 526 689 c 0
 598 689 679 642 678 578 c 0
 678 537 673 514 649 480 c 0
 618 436 578 414 508 378 c 1
 436 445 l 1
 467 460 486 468 499 475 c 1
 437 484 385 523 385 578 c 0
EndSplineSet
EndChar
StartChar: quoteleft
Encoding: 8216 8216 172
Width: 419
Flags: HMW
Validated: 33
VStem: 63 293G<494 514.5>
Fore
356 494 m 0
 356 432 291 383 216 383 c 0
 143 383 62 430 63 494 c 0
 63 535 68 558 92 592 c 0
 123 636 163 658 233 694 c 1
 305 627 l 1
 274 612 255 604 242 597 c 1
 305 588 356 549 356 494 c 0
EndSplineSet
EndChar
StartChar: quoteright
Encoding: 8217 8217 173
Width: 419
Flags: HMW
Validated: 33
VStem: 63 293<557.5 578 557.5 609>
Fore
63 578 m 0
 63 640 128 689 204 689 c 0
 276 689 357 642 356 578 c 0
 356 537 351 514 327 480 c 0
 296 436 256 414 186 378 c 1
 114 445 l 1
 145 460 164 468 177 475 c 1
 115 484 63 523 63 578 c 0
EndSplineSet
EndChar
StartChar: divide
Encoding: 247 247 174
Width: 600
Flags: HMW
Validated: 1
HStem: 90 155<276 325.5> 263 110<76 524 76 524> 397 155G<276 325.5>
VStem: 204 194G
Fore
76 263 m 1
 76 373 l 1
 524 373 l 1
 524 263 l 1
 76 263 l 1
203 503 m 0
 203 548 249 582 301 582 c 0
 352 582 398 548 398 503 c 0
 398 457 350 427 301 427 c 0
 251 427 203 457 203 503 c 0
203 135 m 4
 203 180 249 215 301 215 c 4
 352 215 398 180 398 135 c 4
 398 89 350 60 301 60 c 4
 251 60 203 89 203 135 c 4
EndSplineSet
EndChar
StartChar: fraction
Encoding: 8260 8260 177
Width: 527
Flags: HMW
Validated: 1
HStem: 598 20G<498 498>
Fore
-60 60 m 1
 498 618 l 1
 587 529 l 1
 29 -29 l 1
 -60 60 l 1
EndSplineSet
EndChar
StartChar: guilsinglleft
Encoding: 8249 8249 178
Width: 552
Flags: W
Validated: 1
HStem: -22 21G<373.397 449.667>
VStem: 30 492<230 429 230 230>
Fore
30 230 m 1
 403 481 l 1
 522 429 l 1
 265 229 l 1
 522 29 l 1
 403 -22 l 1
 30 230 l 1
EndSplineSet
EndChar
StartChar: guilsinglright
Encoding: 8250 8250 179
Width: 552
Flags: W
Validated: 1
HStem: -22 21G<102.333 178.603>
VStem: 30 492<29 230 29 29>
Fore
30 29 m 1
 287 229 l 1
 30 429 l 1
 149 481 l 1
 522 230 l 1
 149 -22 l 1
 30 29 l 1
EndSplineSet
EndChar
StartChar: uniFB01
Encoding: 64257 64257 180
Width: 1359
Flags: HMW
Validated: 1
HStem: 0 124<40 144 351 459 40 144 900 1004 1211 1319> 260 115G<351 579 351 579> 504 115G<40 144 40 821 351 683 351 351 40 900 900 1004 1211 1211 1211 1319>
VStem: 144 207<124 260 375 504> 683 138G<379 504 504 504> 1004 207G<124 504>
Fore
40 0 m 1
 40 124 l 1
 144 124 l 1
 144 504 l 1
 40 504 l 1
 40 619 l 1
 821 619 l 1
 821 379 l 1
 683 379 l 1
 683 504 l 1
 351 504 l 1
 351 375 l 1
 579 375 l 1
 579 260 l 1
 351 260 l 1
 351 124 l 1
 459 124 l 1
 459 0 l 1
 40 0 l 1
900 0 m 1
 900 124 l 1
 1004 124 l 1
 1004 504 l 1
 900 504 l 1
 900 619 l 1
 1319 619 l 1
 1319 504 l 1
 1211 504 l 1
 1211 124 l 1
 1319 124 l 1
 1319 0 l 1
 900 0 l 1
EndSplineSet
EndChar
StartChar: uniFB02
Encoding: 64258 64258 181
Width: 1721
Flags: HMW
Validated: 1
HStem: 0 124<40 144 351 459 40 144 900 1004 1211 1543> 260 115G<351 579 351 579> 504 115G<40 144 40 821 351 683 351 351 40 900 900 1004 1211 1211 1211 1319>
VStem: 144 207<124 260 375 504> 683 138<379 504 504 504> 1004 207G<124 504 124 504> 1543 138G<124 241 0 241>
Fore
40 0 m 1
 40 124 l 1
 144 124 l 1
 144 504 l 1
 40 504 l 1
 40 619 l 1
 821 619 l 1
 821 379 l 1
 683 379 l 1
 683 504 l 1
 351 504 l 1
 351 375 l 1
 579 375 l 1
 579 260 l 1
 351 260 l 1
 351 124 l 1
 459 124 l 1
 459 0 l 1
 40 0 l 1
900 0 m 1
 900 124 l 1
 1004 124 l 1
 1004 504 l 1
 900 504 l 1
 900 619 l 1
 1319 619 l 1
 1319 504 l 1
 1211 504 l 1
 1211 124 l 1
 1543 124 l 1
 1543 241 l 1
 1681 241 l 1
 1681 0 l 1
 900 0 l 1
EndSplineSet
EndChar
StartChar: periodcentered
Encoding: 183 183 182
Width: 399
Flags: HMW
Validated: 1
HStem: 295 204<163 236.5>
VStem: 59 281<364.5 423.5>
Fore
59 394 m 0
 59 453 124 499 200 499 c 0
 275 499 340 453 340 394 c 0
 340 335 273 295 200 295 c 0
 126 295 59 335 59 394 c 0
EndSplineSet
EndChar
StartChar: quotesinglbase
Encoding: 8218 8218 183
Width: 419
Flags: HMW
Validated: 1
VStem: 63 293<57.5 78 57.5 109>
Fore
63 78 m 0
 63 140 128 189 204 189 c 0
 275.878 189 356 145 356 78 c 4
 356 37 351 14 327 -20 c 0
 296 -64 256 -86 186 -122 c 1
 114 -55 l 1
 145 -40 164 -32 177 -25 c 1
 115 -16 63 23 63 78 c 0
EndSplineSet
EndChar
StartChar: quotedblbase
Encoding: 8222 8222 184
Width: 740
Flags: HMW
Validated: 1
VStem: 61 293<57.5 78 57.5 109> 385 293G<57.5 78 57.5 109>
Fore
61 78 m 0
 61 140 126 189 202 189 c 0
 273.878 189 354 144 354 78 c 4
 354 37 349 14 325 -20 c 0
 294 -64 254 -86 184 -122 c 1
 112 -55 l 1
 143 -40 162 -32 175 -25 c 1
 113 -16 61 23 61 78 c 0
385 78 m 0
 385 140 450 189 526 189 c 0
 595.125 189 678 147 678 78 c 0
 678 37 673 14 649 -20 c 0
 618 -64 578 -86 508 -122 c 1
 436 -55 l 1
 467 -40 486 -32 499 -25 c 1
 437 -16 385 23 385 78 c 0
EndSplineSet
EndChar
StartChar: perthousand
Encoding: 8240 8240 185
Width: 1760
Flags: HMW
Validated: 33
HStem: -37 91<888.5 947 888.5 979.5 1449.5 1507> 286 86G 529 81G<234 296>
VStem: 40 145<392.5 442 392.5 479> 339 145<416 441> 671 156<135 190.5 135 228.5> 1003 157G<133 187> 1231 156G<133 188.5 133 228.5> 1563 157G<158 187>
Fore
185 424 m 0
 185 377 215 324 265 324 c 0
 315 324 340 379 339 424 c 0
 339 474 327 529 265 529 c 0
 203 529 185 476 185 424 c 0
40 422 m 0
 40 536 152 610 264 610 c 0
 377 610 484 534 484 422 c 0
 484 302 376 237 264 237 c 0
 149 237 40 308 40 422 c 0
918 287 m 0
 859.274 287 826.696 231.085 826.696 174 c 0
 826.696 108 854.86 54 918 54 c 0
 976 54 1003 108 1003 158 c 0
 1003 216 989 287 918 287 c 0
671 166 m 0
 671 291 794 372 918 372 c 0
 1041 372 1160 289 1160 166 c 0
 1160 33 1041 -37 918 -37 c 0
 791 -37 671 40 671 166 c 0
220 -76 m 1
 709 639 l 1
 904 639 l 1
 430 -76 l 1
 220 -76 l 1
1387 167 m 0
 1387 115 1421 54 1478 54 c 0
 1536 54 1564 116 1563 166 c 0
 1563 224 1549 287 1478 287 c 0
 1408 287 1387 226 1387 167 c 0
1231 166 m 0
 1231 291 1354 372 1478 372 c 0
 1601 372 1720 289 1720 166 c 0
 1720 33 1601 -37 1478 -37 c 0
 1351 -37 1231 40 1231 166 c 0
EndSplineSet
EndChar
StartChar: uniF8FF
Encoding: 63743 63743 197
Width: 1630
Flags: HMW
Validated: 5
HStem: 180 61<142 161 142 174 142 161 264 305 264 264 405 433 405 405 1189 1189 1189 1210 1286 1286 1286 1298 1367 1367 1367 1399 1489 1489 1489 1521> 318 61<878 946 878 946> 391 119G<39 69 39 86 39 178 39 172 39 187 39 216 325 333 620 639 878 905 908 940 878 878 1019 1039 1019 1019> 599 65G<468 500.5 446.5 509.5>
VStem: 949 70G<304 339 304 339 304 339 354 391 304 391> 1040 90G 1184 101G 1463 128G<299 356 356 356>
Fore
1390 347 m 0
 1390 316.819 1416.54 298.96 1453.01 298.96 c 0
 1454 298.96 1455 298.974 1456 299 c 1
 1456 356 l 1
 1520 356 l 1
 1520 368 1498 393 1457 393 c 0
 1413 393 1390 376 1390 347 c 0
1105 598 m 1
 1084 598 l 1
 1105 579 l 1
 1105 598 l 1
1347 440 m 2
 1254 440 1183 468 1183 551 c 0
 1183 569 1188 585 1195 598 c 1
 1181 598 l 1
 1181 451 l 1
 1236 447 1281 425 1295 380 c 1
 1305 408 1329 428 1359 440 c 1
 1347 440 l 2
1015 510 m 1
 1048 510 l 1
 1048 452 l 1
 1115 452 l 1
 1015 542 l 1
 1015 510 l 1
742 580 m 1
 765 597 l 1
 742 597 l 1
 742 580 l 1
1210 180 m 1
 1189 180 l 1
 1210 161 l 1
 1210 180 l 1
878 303 m 1
 949 303 l 1
 949 339 l 1
 1019 339 l 1
 1019 304 l 1
 1039 304 l 1
 1039 391 l 1
 1019 391 l 1
 1019 354 l 1
 949 354 l 1
 949 391 l 1
 878 391 l 1
 878 379 l 1
 946 379 l 1
 946 318 l 1
 878 318 l 1
 878 303 l 1
767 452 m 1
 801 452 l 1
 767 484 l 1
 767 452 l 1
426 554 m 0
 426 521 451 506 489 506 c 0
 522 506 543.997 516.001 555 543 c 1
 555 567 l 2
 555 584.445 519.217 599.44 485.344 599.44 c 0
 454.901 599.44 426 587.329 426 554 c 0
883 92 m 1
 954 92 l 1
 954 127 l 1
 1024 127 l 1
 1024 92 l 1
 1045 92 l 1
 1045 180 l 1
 1024 180 l 1
 1024 142 l 1
 954 142 l 1
 954 180 l 1
 883 180 l 1
 883 167 l 1
 951 167 l 1
 951 106 l 1
 883 106 l 1
 883 92 l 1
607 303 m 1
 696 303 l 1
 696 339 l 1
 766 339 l 1
 766 303 l 1
 787 303 l 1
 787 391 l 1
 756 391 l 1
 756 446 l 1
 639 446 l 1
 639 391 l 1
 607 391 l 1
 607 303 l 1
620 452 m 1
 620 510 l 1
 652 510 l 1
 652 598 l 1
 622 598 l 1
 622 547 l 2
 622 508 604 469 552 452 c 1
 620 452 l 1
746 92 m 1
 793 92 l 1
 793 180 l 1
 746 180 l 1
 746 92 l 1
509 92 m 1
 526 92 l 1
 509 118 l 1
 509 92 l 1
656 92 m 1
 656 118 l 1
 638 92 l 1
 656 92 l 1
354 452 m 1
 410 452 l 1
 388 458 368 467 354 481 c 1
 354 452 l 1
349 391 m 1
 349 446 l 1
 349 391 l 1
 319 391 l 1
 341 349 l 1
 362 391 l 1
 349 391 l 1
187 391 m 1
 187 452 l 1
 215 452 l 1
 215 496 l 1
 178 496 l 1
 178 391 l 1
 197 346 l 1
 220 385 l 1
 220 391 l 1
 187 391 l 1
264 92 m 1
 335 92 l 1
 335 127 l 1
 405 127 l 1
 405 92 l 1
 433 92 l 1
 433 180 l 1
 405 180 l 1
 405 143 l 1
 335 143 l 1
 335 180 l 1
 264 180 l 1
 264 168 l 1
 332 168 l 1
 332 107 l 1
 264 107 l 1
 264 92 l 1
485 241 m 1
 485 303 l 1
 517 303 l 1
 517 391 l 1
 447 391 l 1
 363 241 l 1
 485 241 l 1
508 237 m 1
 588 145 l 1
 667 237 l 1
 508 237 l 1
1179 241 m 1
 1417 241 l 1
 1357 247 1309 266 1294 313 c 1
 1278 263 1226 242 1160 242 c 2
 1126 242 l 1
 1179 189 l 1
 1179 241 l 1
219 241 m 1
 305 241 l 1
 260 317 l 1
 219 241 l 1
1485 241 m 1
 1486.86 241.232 1488.81 241.33 1490.83 241.33 c 0
 1501.28 241.33 1513.5 238.726 1523.58 238.726 c 0
 1528.33 238.726 1532.61 239.303 1536 241 c 1
 1485 241 l 1
39 391 m 1
 39 510 l 1
 86 510 l 1
 178 655 l 1
 233 670 l 1
 325 510 l 1
 323.333 514 322.778 518.333 322.778 522.963 c 0
 322.778 532.222 325 542.667 325 554 c 0
 325 631 404 659 489 659 c 2
 767 659 l 1
 767 616 l 1
 779 616 l 1
 779 659 l 1
 890 659 l 1
 890 598 l 1
 848 598 l 1
 803 558 l 1
 860 510 l 1
 905 510 l 1
 905 452 l 1
 905 510 l 1
 940 510 l 1
 940 598 l 1
 908 598 l 1
 908 659 l 1
 1020 659 l 1
 1074 607 l 1
 1074 659 l 1
 1213 659 l 1
 1213 620 l 1
 1242.35 646.509 1295.84 661.282 1349.49 661.282 c 0
 1430.07 661.282 1511 627.952 1511 551 c 0
 1511 503 1488 468 1451 452 c 1
 1591 452 l 1
 1591 142 l 1
 1521 142 l 1
 1521 180 l 1
 1489 180 l 1
 1489 92 l 1
 1529 92 l 1
 1529 28 l 1
 1361 28 l 1
 1361 92 l 1
 1399 92 l 1
 1399 180 l 1
 1367 180 l 1
 1367 142 l 1
 1298 142 l 1
 1298 180 l 1
 1286 180 l 1
 1286 28 l 1
 1227 28 l 1
 1120 124 l 1
 1120 92 l 1
 1153 92 l 1
 1153 28 l 1
 623 28 l 1
 623 61 l 1
 596 28 l 1
 569 28 l 1
 552 50 l 1
 552 28 l 1
 142 28 l 1
 142 92 l 1
 174 92 l 1
 174 180 l 1
 142 180 l 1
 142 241 l 1
 161 241 l 1
 69 391 l 1
 39 391 l 1
1284 551 m 0
 1284 519 1309 503 1347 503 c 0
 1389 503 1410 518 1410 551 c 0
 1410 579 1388 596 1347 596 c 0
 1305 596 1284 581 1284 551 c 0
1130 304 m 1
 1161 304 l 2
 1196 304 1204 314 1204 348 c 0
 1204 380 1194 391 1158 391 c 2
 1130 391 l 1
 1130 304 l 1
170 556 m 1
 210 556 l 1
 192 593 l 1
 170 556 l 1
EndSplineSet
EndChar
StartChar: dotlessi
Encoding: 305 305 202
Width: 499
Flags: W
Validated: 1
HStem: 0 124<40 144 351 459> 504 115<40 144 351 459>
VStem: 40 419<0 124 504 619 0 619 1.53064e-18 1.53064e-18> 144 207<124 504>
Fore
40 0 m 1xe0
 40 124 l 1xe0
 144 124 l 1
 144 504 l 1xd0
 40 504 l 1
 40 619 l 1
 459 619 l 1
 459 504 l 1xe0
 351 504 l 1
 351 124 l 1xd0
 459 124 l 1
 459 0 l 1
 40 0 l 1xe0
EndSplineSet
EndChar
StartChar: circumflex
Encoding: 710 710 203
Width: 1003
Flags: W
Validated: 1
HStem: 672 146<455 615 455 455>
VStem: 276 362<736.435 748 748 748 748 748>
Fore
276 748 m 1
 455 818 l 1
 638 748 l 1
 615 672 l 1
 455 734 l 1
 299 672 l 1
 276 748 l 1
EndSplineSet
EndChar
StartChar: tilde
Encoding: 732 732 204
Width: 1003
Flags: W
Validated: 1
HStem: 652 75<535.036 677.867> 723 75<330.629 453.87>
VStem: 279 447<707 740 740 740>
Fore
409 798 m 0x60
 481 798 542 727 599 727 c 0
 652.5 727 657 730 691 759 c 1
 726 707 l 1
 688 666 640 652 593 652 c 0xa0
 501 652 450 723 388 723 c 0
 342.989 723 345 715 316 686 c 1
 279 740 l 1
 306 769 358 798 409 798 c 0x60
EndSplineSet
EndChar
StartChar: macron
Encoding: 175 175 205
Width: 1003
Flags: HMW
Validated: 1
HStem: 690 78<287 720 287 720>
Fore
287 690 m 1
 287 768 l 1
 720 768 l 1
 720 690 l 1
 287 690 l 1
EndSplineSet
EndChar
StartChar: breve
Encoding: 728 728 206
Width: 1003
Flags: HMW
Validated: 1
HStem: 632 72<434.5 491.5 434.5 511>
Fore
368 773 m 1
 368 736 406 704 463 704 c 0
 520 704 557 736 557 773 c 1
 614 773 l 5
 614 690 554.938 632 462 632 c 0
 367.923 632 311 690 311 773 c 1
 368 773 l 1
EndSplineSet
EndChar
StartChar: cedilla
Encoding: 184 184 207
Width: 820
Flags: HMW
Validated: 33
HStem: -160 85<396 431>
Fore
258 -121 m 1
 348 -121 l 1
 348 -175 468 -167.374 468 -121.5 c 0
 468 -90.5 465 -75 403 -75 c 0
 369 -75 352 -92 340 -105 c 5
 274 -105 l 1
 274 48 l 1
 337 48 l 1
 337 -44 l 1
 356 -32 378 -24 412 -24 c 0
 470 -24 562 -44 562 -120 c 0
 562 -186 486 -211 402 -211 c 0
 348 -211 258 -195 258 -121 c 1
EndSplineSet
EndChar
StartChar: caron
Encoding: 711 711 208
Width: 1003
Flags: W
Validated: 1
HStem: 672 146<279 455 279 279>
VStem: 266 382<742 762.462 742 742 742 742>
Fore
266 742 m 1
 279 818 l 1
 455 756 l 1
 635 818 l 1
 648 742 l 1
 455 672 l 1
 266 742 l 1
EndSplineSet
EndChar
